<svg version="1.1" id="Layer_1" xmlns="http://www.w3.org/2000/svg" xmlns:xlink="http://www.w3.org/1999/xlink" x="0px" y="0px"
	 width="100%" viewBox="0 0 400 111" enable-background="new 0 0 400 111" xml:space="preserve">
<path fill="#FDFDFD" opacity="1.000000" stroke="none" 
	d="
M265.000000,112.000000 
	C176.666687,112.000000 88.833374,112.000000 1.000047,112.000000 
	C1.000031,75.000031 1.000031,38.000061 1.000016,1.000067 
	C134.333267,1.000045 267.666534,1.000045 400.999878,1.000022 
	C400.999908,37.999928 400.999908,74.999855 400.999939,111.999893 
	C355.833344,112.000000 310.666656,112.000000 265.000000,112.000000 
M247.348358,85.277634 
	C249.113007,91.667114 253.928741,87.895981 257.677002,88.797363 
	C257.677002,68.967651 257.677002,49.616196 257.677002,30.380560 
	C254.535049,30.380560 251.822372,30.380560 248.791565,30.380560 
	C248.791565,41.217575 248.791565,51.592171 248.791565,61.966763 
	C245.012833,53.744617 242.144196,45.319553 239.276413,36.894196 
	C236.561722,28.918610 235.277328,28.274956 227.166168,30.748108 
	C227.166168,50.015125 227.166168,69.249405 227.166168,88.489151 
	C230.279907,88.489151 232.995514,88.489151 236.254135,88.489151 
	C236.254135,77.010582 236.254135,65.923340 236.254135,54.836098 
	C236.517685,54.816833 236.781235,54.797569 237.044785,54.778305 
	C240.404449,64.686607 243.764114,74.594902 247.348358,85.277634 
M358.055176,55.187202 
	C362.202393,58.163044 366.212372,61.358547 370.532379,64.057838 
	C375.663452,67.263901 377.604401,70.677780 375.802124,76.469475 
	C375.280945,78.144249 372.682281,80.208405 371.048950,80.197250 
	C369.545868,80.186989 367.640350,77.854820 366.697845,76.118904 
	C365.925293,74.695999 366.308044,72.645821 366.161255,70.635498 
	C364.331879,70.546913 362.843964,70.609222 361.402496,70.379822 
	C357.107544,69.696312 355.974823,71.606171 356.144470,75.682335 
	C356.553955,85.521599 361.139099,89.848907 371.529053,89.639549 
	C381.937012,89.429817 385.292816,85.364807 386.151733,75.042427 
	C386.993042,64.931503 383.393646,58.406910 374.105927,54.711502 
	C372.422882,54.041847 370.844421,53.025772 369.351898,51.978428 
	C366.416016,49.918293 365.079132,42.389519 367.470459,39.773926 
	C368.504547,38.642857 370.782715,37.817860 372.220825,38.128132 
	C373.579895,38.421352 374.983948,40.206757 375.624451,41.662987 
	C376.297394,43.192932 376.087280,45.111301 376.257294,46.802658 
	C379.637451,46.802658 382.532776,46.802658 385.353790,46.802658 
	C386.893524,36.622887 384.421417,31.171860 376.710266,29.749491 
	C372.481018,28.969379 367.556519,29.191143 363.590271,30.679441 
	C360.723602,31.755140 357.428741,35.424976 356.966827,38.354469 
	C356.142761,43.580872 357.315674,49.122143 358.055176,55.187202 
M316.430023,88.878899 
	C319.339020,89.266258 321.085358,88.558548 321.269379,85.079643 
	C321.430725,82.029030 322.362152,79.019157 322.923340,76.145401 
	C326.662720,76.145401 329.767151,76.145401 332.995575,76.145401 
	C333.823822,80.451942 334.601685,84.496483 335.381470,88.550941 
	C338.735504,88.550941 341.808167,88.550941 345.547302,88.550941 
	C341.809174,68.762535 338.153992,49.413437 334.471375,29.918966 
	C331.247864,29.918966 328.580231,30.090483 325.944153,29.875410 
	C322.673157,29.608534 321.406067,30.662018 320.871887,34.157047 
	C319.365784,44.011230 317.240662,53.769733 315.422699,63.577660 
	C313.892975,71.830490 312.451843,80.099724 310.874512,88.902725 
	C312.948090,88.902725 314.246277,88.902725 316.430023,88.878899 
M184.454193,88.880951 
	C188.256241,89.716888 189.375809,87.547386 189.755676,84.314461 
	C190.078568,81.566528 190.634521,78.845970 191.060699,76.274231 
	C201.026596,75.179787 201.017883,75.181419 202.669662,83.986710 
	C202.965607,85.564323 203.366608,87.122238 203.698898,88.599487 
	C207.159134,88.599487 210.251968,88.599487 213.847855,88.599487 
	C210.226151,69.664711 206.721039,51.094830 203.008804,32.566441 
	C202.796173,31.505173 201.011368,30.373386 199.746216,30.007402 
	C198.211136,29.563335 196.423599,30.089321 194.792953,29.858673 
	C190.992935,29.321182 189.591354,30.904558 189.016571,34.655464 
	C187.710297,43.180107 185.854614,51.619514 184.282593,60.104748 
	C182.542114,69.499382 180.868866,78.906479 179.104980,88.647011 
	C180.989456,88.730850 182.285477,88.788513 184.454193,88.880951 
M146.507904,29.708319 
	C139.618240,31.796249 137.094116,34.850494 137.028168,41.871277 
	C136.918793,53.514282 137.050156,65.159386 136.981186,76.803009 
	C136.954498,81.311661 138.297775,85.387665 142.339233,87.337631 
	C148.919907,90.512733 155.937805,90.769333 162.329681,86.804688 
	C164.336945,85.559654 166.161835,82.829369 166.592972,80.504906 
	C167.295135,76.719246 166.782486,72.708260 166.782486,68.723900 
	C163.382446,68.723900 160.346375,68.723900 156.995270,68.723900 
	C156.995270,71.143837 156.969162,73.124283 157.001236,75.103790 
	C157.052338,78.257072 155.774765,80.182526 152.400635,80.331009 
	C148.794220,80.489723 147.141571,78.498169 147.114990,75.192337 
	C147.028030,64.380913 146.882874,53.560863 147.291748,42.764267 
	C147.353622,41.129997 150.010986,38.717575 151.877975,38.227360 
	C154.905579,37.432392 156.785446,39.568096 156.993546,42.779091 
	C157.117294,44.688271 157.174744,46.601749 157.261551,48.503685 
	C160.799118,48.503685 163.718521,48.503685 167.105560,48.503685 
	C167.105560,46.582932 167.110657,44.958721 167.104721,43.334553 
	C167.068466,33.431149 162.754974,29.156862 152.771805,29.186749 
	C150.950821,29.192202 149.130341,29.361986 146.507904,29.708319 
M293.895325,85.438095 
	C297.368530,67.110039 300.841766,48.781975 304.349640,30.270859 
	C300.448059,30.270859 297.551025,30.270859 294.623993,30.270859 
	C292.545441,42.916164 290.528168,55.188938 288.510864,67.461708 
	C288.088226,67.381950 287.665588,67.302185 287.242950,67.222427 
	C285.483124,56.065559 283.617188,44.923695 282.036346,33.741524 
	C281.629089,30.860912 280.703979,29.550236 277.687347,29.858555 
	C275.635773,30.068239 273.545441,29.898628 270.994537,29.898628 
	C274.851593,50.121574 278.537506,69.447037 282.243958,88.880203 
	C285.029480,88.880203 287.249390,89.209183 289.308014,88.774368 
	C290.906799,88.436676 292.304291,87.145996 293.895325,85.438095 
M78.238312,89.545448 
	C79.030136,92.404083 79.821960,95.262711 80.673035,98.335251 
	C89.795143,93.545670 96.942123,86.229515 99.718987,79.373489 
	C91.485786,71.968201 78.801231,79.113487 78.238312,89.545448 
M105.865196,60.243565 
	C105.523102,55.947441 105.172417,51.651978 104.841698,47.354980 
	C104.585587,44.027355 102.950905,43.557831 100.109436,44.805412 
	C94.575066,47.235344 91.202698,53.281750 92.104736,59.490257 
	C92.968307,65.434013 97.420105,69.552422 104.170914,70.334755 
	C104.713676,67.291939 105.261719,64.219498 105.865196,60.243565 
M51.899921,22.794353 
	C61.957878,27.426525 71.308121,22.904526 72.169189,12.641517 
	C63.452461,10.684669 54.790997,10.534360 44.409451,13.179260 
	C47.145313,16.853828 49.206360,19.622044 51.899921,22.794353 
M99.203339,33.340141 
	C94.372009,28.380840 89.592651,23.369390 84.689484,18.482159 
	C81.831879,15.633840 80.163651,17.074545 79.047638,20.285606 
	C77.142654,25.766747 78.642509,30.460903 82.439331,34.472660 
	C85.780930,38.003407 92.523438,39.342091 96.779144,37.295788 
	C97.980927,36.717930 98.678322,35.091080 99.203339,33.340141 
M37.905872,17.624107 
	C37.006077,17.561823 35.875607,17.115396 35.241772,17.496012 
	C28.019407,21.833052 22.369188,27.698486 18.226204,35.008774 
	C23.497587,39.112026 30.006784,39.149513 34.873894,35.334473 
	C39.903309,31.392214 41.173820,25.146130 37.905872,17.624107 
M32.871914,95.673668 
	C34.229538,96.496361 35.587158,97.319061 36.914654,98.123497 
	C41.295044,91.714493 40.777782,85.117020 35.858212,80.181747 
	C30.932415,75.240227 24.586367,74.968994 17.391392,80.246643 
	C22.441568,85.332283 27.367598,90.292900 32.871914,95.673668 
M71.910606,101.989777 
	C71.883133,95.649605 67.260872,90.806686 60.526508,90.062233 
	C54.363274,89.380920 47.425911,93.954140 46.184788,99.378204 
	C45.500484,102.368797 47.256531,102.903862 49.484600,102.873322 
	C56.759647,102.773651 64.033417,102.580460 71.910606,101.989777 
M23.660530,48.977962 
	C20.926928,47.121666 18.193323,45.265373 14.614499,42.835117 
	C12.350907,53.125336 12.053588,61.811939 14.527105,70.574234 
	C25.317585,68.343056 29.291319,59.146217 23.660530,48.977962 
M73.545914,36.938816 
	C71.736855,39.478569 72.269928,41.983017 74.773605,43.225292 
	C76.132957,43.899776 78.984612,43.483509 79.974640,42.435982 
	C80.927803,41.427456 81.035812,38.602959 80.297363,37.232536 
	C78.918648,34.673908 76.455513,34.322361 73.545914,36.938816 
M40.016571,35.462082 
	C37.121716,36.886364 35.863071,39.374180 37.928646,41.821671 
	C38.987385,43.076164 41.896660,43.269325 43.853699,43.022621 
	C44.653271,42.921829 46.060104,39.758228 45.596844,39.085384 
	C44.474613,37.455433 42.416164,36.470074 40.016571,35.462082 
M29.958086,58.166718 
	C30.745487,61.112423 32.835045,62.508160 35.489090,61.264809 
	C36.891125,60.607998 38.427444,58.249783 38.276920,56.832432 
	C38.129745,55.446587 36.096771,53.552814 34.569977,53.172249 
	C31.586420,52.428566 30.039476,54.384335 29.958086,58.166718 
M59.336475,28.015041 
	C56.131573,28.011408 54.511795,29.958076 55.073784,32.768486 
	C55.386593,34.332794 57.293217,36.492081 58.695179,36.666542 
	C60.081959,36.839115 63.079948,34.733814 63.000832,33.836750 
	C62.826099,31.855494 61.161411,30.005642 59.336475,28.015041 
M45.314682,76.932709 
	C44.653591,74.950287 44.347309,72.701225 43.156593,71.116821 
	C42.680984,70.483955 39.849274,70.810478 38.828293,71.625290 
	C37.792530,72.451904 37.107258,74.478966 37.254566,75.876320 
	C37.618225,79.326012 40.804771,79.954506 45.314682,76.932709 
M63.704704,82.475746 
	C63.072636,79.116501 61.010387,77.133118 57.778599,78.466560 
	C56.394157,79.037781 55.359287,81.721237 55.213867,83.529274 
	C55.133846,84.524246 57.549755,86.787766 58.282490,86.573311 
	C60.218033,86.006805 61.849209,84.400352 63.704704,82.475746 
M86.608162,61.205509 
	C89.416481,58.540817 90.153030,55.698799 86.307350,53.603104 
	C85.108406,52.949741 82.598824,53.481247 81.415222,54.402790 
	C80.454056,55.151146 79.798645,58.101727 80.376122,58.659950 
	C81.812256,60.048195 84.029816,60.628056 86.608162,61.205509 
M81.350594,75.447998 
	C79.844376,73.852913 78.560585,71.800179 76.715073,70.903229 
	C76.040710,70.575470 73.152168,72.820648 72.880600,74.206841 
	C72.611229,75.581848 74.488304,78.748901 75.207054,78.685127 
	C77.246964,78.504112 79.176048,77.074043 81.350594,75.447998 
z"/>
<path fill="#787878" opacity="1.000000" stroke="none" 
	d="
M247.236053,84.890419 
	C243.764114,74.594902 240.404449,64.686607 237.044785,54.778305 
	C236.781235,54.797569 236.517685,54.816833 236.254135,54.836098 
	C236.254135,65.923340 236.254135,77.010582 236.254135,88.489151 
	C232.995514,88.489151 230.279907,88.489151 227.166168,88.489151 
	C227.166168,69.249405 227.166168,50.015125 227.166168,30.748108 
	C235.277328,28.274956 236.561722,28.918610 239.276413,36.894196 
	C242.144196,45.319553 245.012833,53.744617 248.791565,61.966763 
	C248.791565,51.592171 248.791565,41.217575 248.791565,30.380560 
	C251.822372,30.380560 254.535049,30.380560 257.677002,30.380560 
	C257.677002,49.616196 257.677002,68.967651 257.677002,88.797363 
	C253.928741,87.895981 249.113007,91.667114 247.236053,84.890419 
z"/>
<path fill="#797979" opacity="1.000000" stroke="none" 
	d="
M357.854370,54.859478 
	C357.315674,49.122143 356.142761,43.580872 356.966827,38.354469 
	C357.428741,35.424976 360.723602,31.755140 363.590271,30.679441 
	C367.556519,29.191143 372.481018,28.969379 376.710266,29.749491 
	C384.421417,31.171860 386.893524,36.622887 385.353790,46.802658 
	C382.532776,46.802658 379.637451,46.802658 376.257294,46.802658 
	C376.087280,45.111301 376.297394,43.192932 375.624451,41.662987 
	C374.983948,40.206757 373.579895,38.421352 372.220825,38.128132 
	C370.782715,37.817860 368.504547,38.642857 367.470459,39.773926 
	C365.079132,42.389519 366.416016,49.918293 369.351898,51.978428 
	C370.844421,53.025772 372.422882,54.041847 374.105927,54.711502 
	C383.393646,58.406910 386.993042,64.931503 386.151733,75.042427 
	C385.292816,85.364807 381.937012,89.429817 371.529053,89.639549 
	C361.139099,89.848907 356.553955,85.521599 356.144470,75.682335 
	C355.974823,71.606171 357.107544,69.696312 361.402496,70.379822 
	C362.843964,70.609222 364.331879,70.546913 366.161255,70.635498 
	C366.308044,72.645821 365.925293,74.695999 366.697845,76.118904 
	C367.640350,77.854820 369.545868,80.186989 371.048950,80.197250 
	C372.682281,80.208405 375.280945,78.144249 375.802124,76.469475 
	C377.604401,70.677780 375.663452,67.263901 370.532379,64.057838 
	C366.212372,61.358547 362.202393,58.163044 357.854370,54.859478 
z"/>
<path fill="#7A7A7A" opacity="1.000000" stroke="none" 
	d="
M315.987244,88.890808 
	C314.246277,88.902725 312.948090,88.902725 310.874512,88.902725 
	C312.451843,80.099724 313.892975,71.830490 315.422699,63.577660 
	C317.240662,53.769733 319.365784,44.011230 320.871887,34.157047 
	C321.406067,30.662018 322.673157,29.608534 325.944153,29.875410 
	C328.580231,30.090483 331.247864,29.918966 334.471375,29.918966 
	C338.153992,49.413437 341.809174,68.762535 345.547302,88.550941 
	C341.808167,88.550941 338.735504,88.550941 335.381470,88.550941 
	C334.601685,84.496483 333.823822,80.451942 332.995575,76.145401 
	C329.767151,76.145401 326.662720,76.145401 322.923340,76.145401 
	C322.362152,79.019157 321.430725,82.029030 321.269379,85.079643 
	C321.085358,88.558548 319.339020,89.266258 315.987244,88.890808 
M324.930359,61.390327 
	C324.729828,63.139149 324.529327,64.887970 324.313751,66.768188 
	C326.915863,66.768188 329.223663,66.768188 331.865234,66.768188 
	C330.728271,59.952778 329.674561,53.636356 328.620850,47.319935 
	C328.151031,47.381271 327.681213,47.442612 327.211426,47.503948 
	C326.483002,51.844036 325.754578,56.184120 324.930359,61.390327 
z"/>
<path fill="#7A7A7A" opacity="1.000000" stroke="none" 
	d="
M184.017853,88.863556 
	C182.285477,88.788513 180.989456,88.730850 179.104980,88.647011 
	C180.868866,78.906479 182.542114,69.499382 184.282593,60.104748 
	C185.854614,51.619514 187.710297,43.180107 189.016571,34.655464 
	C189.591354,30.904558 190.992935,29.321182 194.792953,29.858673 
	C196.423599,30.089321 198.211136,29.563335 199.746216,30.007402 
	C201.011368,30.373386 202.796173,31.505173 203.008804,32.566441 
	C206.721039,51.094830 210.226151,69.664711 213.847855,88.599487 
	C210.251968,88.599487 207.159134,88.599487 203.698898,88.599487 
	C203.366608,87.122238 202.965607,85.564323 202.669662,83.986710 
	C201.017883,75.181419 201.026596,75.179787 191.060699,76.274231 
	C190.634521,78.845970 190.078568,81.566528 189.755676,84.314461 
	C189.375809,87.547386 188.256241,89.716888 184.017853,88.863556 
M197.207947,49.436722 
	C196.928467,48.355019 196.648972,47.273312 196.369492,46.191608 
	C196.054550,46.243744 195.739624,46.295883 195.424683,46.348019 
	C194.435806,53.090225 193.446915,59.832432 192.424927,66.800369 
	C195.112091,66.800369 197.452545,66.800369 200.108139,66.800369 
	C199.131973,60.996929 198.229218,55.629868 197.207947,49.436722 
z"/>
<path fill="#797979" opacity="1.000000" stroke="none" 
	d="
M146.908752,29.582115 
	C149.130341,29.361986 150.950821,29.192202 152.771805,29.186749 
	C162.754974,29.156862 167.068466,33.431149 167.104721,43.334553 
	C167.110657,44.958721 167.105560,46.582932 167.105560,48.503685 
	C163.718521,48.503685 160.799118,48.503685 157.261551,48.503685 
	C157.174744,46.601749 157.117294,44.688271 156.993546,42.779091 
	C156.785446,39.568096 154.905579,37.432392 151.877975,38.227360 
	C150.010986,38.717575 147.353622,41.129997 147.291748,42.764267 
	C146.882874,53.560863 147.028030,64.380913 147.114990,75.192337 
	C147.141571,78.498169 148.794220,80.489723 152.400635,80.331009 
	C155.774765,80.182526 157.052338,78.257072 157.001236,75.103790 
	C156.969162,73.124283 156.995270,71.143837 156.995270,68.723900 
	C160.346375,68.723900 163.382446,68.723900 166.782486,68.723900 
	C166.782486,72.708260 167.295135,76.719246 166.592972,80.504906 
	C166.161835,82.829369 164.336945,85.559654 162.329681,86.804688 
	C155.937805,90.769333 148.919907,90.512733 142.339233,87.337631 
	C138.297775,85.387665 136.954498,81.311661 136.981186,76.803009 
	C137.050156,65.159386 136.918793,53.514282 137.028168,41.871277 
	C137.094116,34.850494 139.618240,31.796249 146.908752,29.582115 
z"/>
<path fill="#7A7A7A" opacity="1.000000" stroke="none" 
	d="
M293.843292,85.858498 
	C292.304291,87.145996 290.906799,88.436676 289.308014,88.774368 
	C287.249390,89.209183 285.029480,88.880203 282.243958,88.880203 
	C278.537506,69.447037 274.851593,50.121574 270.994537,29.898628 
	C273.545441,29.898628 275.635773,30.068239 277.687347,29.858555 
	C280.703979,29.550236 281.629089,30.860912 282.036346,33.741524 
	C283.617188,44.923695 285.483124,56.065559 287.242950,67.222427 
	C287.665588,67.302185 288.088226,67.381950 288.510864,67.461708 
	C290.528168,55.188938 292.545441,42.916164 294.623993,30.270859 
	C297.551025,30.270859 300.448059,30.270859 304.349640,30.270859 
	C300.841766,48.781975 297.368530,67.110039 293.843292,85.858498 
z"/>
<path fill="#7A7A7A" opacity="1.000000" stroke="none" 
	d="
M78.287720,89.150261 
	C78.801231,79.113487 91.485786,71.968201 99.718987,79.373489 
	C96.942123,86.229515 89.795143,93.545670 80.673035,98.335251 
	C79.821960,95.262711 79.030136,92.404083 78.287720,89.150261 
z"/>
<path fill="#7A7A7A" opacity="1.000000" stroke="none" 
	d="
M105.837479,60.695312 
	C105.261719,64.219498 104.713676,67.291939 104.170914,70.334755 
	C97.420105,69.552422 92.968307,65.434013 92.104736,59.490257 
	C91.202698,53.281750 94.575066,47.235344 100.109436,44.805412 
	C102.950905,43.557831 104.585587,44.027355 104.841698,47.354980 
	C105.172417,51.651978 105.523102,55.947441 105.837479,60.695312 
z"/>
<path fill="#7A7A7A" opacity="1.000000" stroke="none" 
	d="
M51.583664,22.592306 
	C49.206360,19.622044 47.145313,16.853828 44.409451,13.179260 
	C54.790997,10.534360 63.452461,10.684669 72.169189,12.641517 
	C71.308121,22.904526 61.957878,27.426525 51.583664,22.592306 
z"/>
<path fill="#7A7A7A" opacity="1.000000" stroke="none" 
	d="
M99.405197,33.642746 
	C98.678322,35.091080 97.980927,36.717930 96.779144,37.295788 
	C92.523438,39.342091 85.780930,38.003407 82.439331,34.472660 
	C78.642509,30.460903 77.142654,25.766747 79.047638,20.285606 
	C80.163651,17.074545 81.831879,15.633840 84.689484,18.482159 
	C89.592651,23.369390 94.372009,28.380840 99.405197,33.642746 
z"/>
<path fill="#7A7A7A" opacity="1.000000" stroke="none" 
	d="
M38.125298,17.947662 
	C41.173820,25.146130 39.903309,31.392214 34.873894,35.334473 
	C30.006784,39.149513 23.497587,39.112026 18.226204,35.008774 
	C22.369188,27.698486 28.019407,21.833052 35.241772,17.496012 
	C35.875607,17.115396 37.006077,17.561823 38.125298,17.947662 
z"/>
<path fill="#7A7A7A" opacity="1.000000" stroke="none" 
	d="
M32.582771,95.463593 
	C27.367598,90.292900 22.441568,85.332283 17.391392,80.246643 
	C24.586367,74.968994 30.932415,75.240227 35.858212,80.181747 
	C40.777782,85.117020 41.295044,91.714493 36.914654,98.123497 
	C35.587158,97.319061 34.229538,96.496361 32.582771,95.463593 
z"/>
<path fill="#797979" opacity="1.000000" stroke="none" 
	d="
M71.609146,102.206512 
	C64.033417,102.580460 56.759647,102.773651 49.484600,102.873322 
	C47.256531,102.903862 45.500484,102.368797 46.184788,99.378204 
	C47.425911,93.954140 54.363274,89.380920 60.526508,90.062233 
	C67.260872,90.806686 71.883133,95.649605 71.609146,102.206512 
z"/>
<path fill="#797979" opacity="1.000000" stroke="none" 
	d="
M23.852707,49.298534 
	C29.291319,59.146217 25.317585,68.343056 14.527105,70.574234 
	C12.053588,61.811939 12.350907,53.125336 14.614499,42.835117 
	C18.193323,45.265373 20.926928,47.121666 23.852707,49.298534 
z"/>
<path fill="#7F7F7F" opacity="1.000000" stroke="none" 
	d="
M73.799026,36.672691 
	C76.455513,34.322361 78.918648,34.673908 80.297363,37.232536 
	C81.035812,38.602959 80.927803,41.427456 79.974640,42.435982 
	C78.984612,43.483509 76.132957,43.899776 74.773605,43.225292 
	C72.269928,41.983017 71.736855,39.478569 73.799026,36.672691 
z"/>
<path fill="#838383" opacity="1.000000" stroke="none" 
	d="
M40.375801,35.343510 
	C42.416164,36.470074 44.474613,37.455433 45.596844,39.085384 
	C46.060104,39.758228 44.653271,42.921829 43.853699,43.022621 
	C41.896660,43.269325 38.987385,43.076164 37.928646,41.821671 
	C35.863071,39.374180 37.121716,36.886364 40.375801,35.343510 
z"/>
<path fill="#7F7F7F" opacity="1.000000" stroke="none" 
	d="
M29.921122,57.771259 
	C30.039476,54.384335 31.586420,52.428566 34.569977,53.172249 
	C36.096771,53.552814 38.129745,55.446587 38.276920,56.832432 
	C38.427444,58.249783 36.891125,60.607998 35.489090,61.264809 
	C32.835045,62.508160 30.745487,61.112423 29.921122,57.771259 
z"/>
<path fill="#828282" opacity="1.000000" stroke="none" 
	d="
M59.720520,28.058613 
	C61.161411,30.005642 62.826099,31.855494 63.000832,33.836750 
	C63.079948,34.733814 60.081959,36.839115 58.695179,36.666542 
	C57.293217,36.492081 55.386593,34.332794 55.073784,32.768486 
	C54.511795,29.958076 56.131573,28.011408 59.720520,28.058613 
z"/>
<path fill="#828282" opacity="1.000000" stroke="none" 
	d="
M45.120468,77.268173 
	C40.804771,79.954506 37.618225,79.326012 37.254566,75.876320 
	C37.107258,74.478966 37.792530,72.451904 38.828293,71.625290 
	C39.849274,70.810478 42.680984,70.483955 43.156593,71.116821 
	C44.347309,72.701225 44.653591,74.950287 45.120468,77.268173 
z"/>
<path fill="#838383" opacity="1.000000" stroke="none" 
	d="
M63.653126,82.841812 
	C61.849209,84.400352 60.218033,86.006805 58.282490,86.573311 
	C57.549755,86.787766 55.133846,84.524246 55.213867,83.529274 
	C55.359287,81.721237 56.394157,79.037781 57.778599,78.466560 
	C61.010387,77.133118 63.072636,79.116501 63.653126,82.841812 
z"/>
<path fill="#838383" opacity="1.000000" stroke="none" 
	d="
M86.270874,61.369019 
	C84.029816,60.628056 81.812256,60.048195 80.376122,58.659950 
	C79.798645,58.101727 80.454056,55.151146 81.415222,54.402790 
	C82.598824,53.481247 85.108406,52.949741 86.307350,53.603104 
	C90.153030,55.698799 89.416481,58.540817 86.270874,61.369019 
z"/>
<path fill="#7F7F7F" opacity="1.000000" stroke="none" 
	d="
M81.249680,75.791893 
	C79.176048,77.074043 77.246964,78.504112 75.207054,78.685127 
	C74.488304,78.748901 72.611229,75.581848 72.880600,74.206841 
	C73.152168,72.820648 76.040710,70.575470 76.715073,70.903229 
	C78.560585,71.800179 79.844376,73.852913 81.249680,75.791893 
z"/>
<path fill="#F4F4F4" opacity="1.000000" stroke="none" 
	d="
M324.978271,60.957268 
	C325.754578,56.184120 326.483002,51.844036 327.211426,47.503948 
	C327.681213,47.442612 328.151031,47.381271 328.620850,47.319935 
	C329.674561,53.636356 330.728271,59.952778 331.865234,66.768188 
	C329.223663,66.768188 326.915863,66.768188 324.313751,66.768188 
	C324.529327,64.887970 324.729828,63.139149 324.978271,60.957268 
z"/>
<path fill="#F4F4F4" opacity="1.000000" stroke="none" 
	d="
M197.267212,49.849766 
	C198.229218,55.629868 199.131973,60.996929 200.108139,66.800369 
	C197.452545,66.800369 195.112091,66.800369 192.424927,66.800369 
	C193.446915,59.832432 194.435806,53.090225 195.424683,46.348019 
	C195.739624,46.295883 196.054550,46.243744 196.369492,46.191608 
	C196.648972,47.273312 196.928467,48.355019 197.267212,49.849766 
z"/>
</svg>