<svg version="1.1" id="Layer_1" xmlns="http://www.w3.org/2000/svg" xmlns:xlink="http://www.w3.org/1999/xlink" x="0px" y="0px"
	 width="100%" viewBox="0 0 610 170" enable-background="new 0 0 610 170" xml:space="preserve">
<path fill="#000000" opacity="1.000000" stroke="none" 
	d="
M395.000000,171.000000 
	C263.333344,171.000000 132.166672,171.000000 1.000000,171.000000 
	C1.000000,114.333336 1.000000,57.666668 1.000000,1.000000 
	C204.333328,1.000000 407.666656,1.000000 611.000000,1.000000 
	C611.000000,57.666668 611.000000,114.333336 611.000000,171.000000 
	C539.166687,171.000000 467.333344,171.000000 395.000000,171.000000 
M125.580109,146.892197 
	C126.403366,146.297028 127.226624,145.701843 128.790726,145.017822 
	C129.570801,144.812195 130.508926,144.817444 131.107086,144.369110 
	C139.197159,138.305435 146.147781,131.145660 151.064087,122.270096 
	C151.483902,121.512207 149.735229,118.656609 148.382278,117.955025 
	C137.464508,112.293564 124.219017,117.427078 119.613411,128.866318 
	C116.705200,136.089645 117.571922,142.613953 122.783607,147.260086 
	C123.523438,147.227509 124.263260,147.194931 125.580109,146.892197 
M427.949402,45.112621 
	C423.119476,44.855919 418.290222,44.569241 413.456940,44.456085 
	C413.270630,44.451721 413.045258,46.116249 412.968445,47.863022 
	C414.165100,54.949654 415.293762,62.048595 416.573792,69.120132 
	C418.666992,80.683937 420.815704,92.238121 423.021759,103.780937 
	C425.002625,114.145218 427.092194,124.488724 429.120056,134.771545 
	C435.298950,134.771545 440.911255,134.771545 446.586761,134.771545 
	C452.238678,104.542587 457.851227,74.524063 463.516510,44.223446 
	C457.663818,44.223446 453.052399,44.223446 448.111115,44.223446 
	C444.931732,64.403824 441.778381,84.418999 438.625031,104.434166 
	C437.227509,102.006523 436.896118,99.522415 436.513855,97.046150 
	C435.017273,87.351646 433.561310,77.650360 431.979492,67.969696 
	C430.778259,60.618156 429.409332,53.294022 427.949402,45.112621 
M370.902557,74.699211 
	C367.622192,65.474716 364.390656,56.232193 361.000305,47.048313 
	C360.571350,45.886337 359.359070,44.228466 358.424561,44.170406 
	C353.692688,43.876408 348.932739,44.035095 344.284424,44.035095 
	C344.284424,74.724693 344.284424,104.639404 344.284424,134.639084 
	C349.287750,134.639084 353.996460,134.639084 359.090332,134.639084 
	C359.090332,116.935043 359.090332,99.587509 359.090332,82.239967 
	C360.137665,83.313690 360.601562,84.484680 361.011078,85.674408 
	C366.267365,100.945038 371.481110,116.230560 376.827820,131.469437 
	C377.290894,132.789352 378.541840,134.719177 379.558563,134.804993 
	C383.942749,135.175049 388.376068,134.963226 392.721985,134.963226 
	C392.721985,104.291840 392.721985,74.377296 392.721985,44.353554 
	C387.729279,44.353554 383.019440,44.353554 377.925201,44.353554 
	C377.925201,61.056026 377.925201,77.408951 377.925201,93.761871 
	C377.678436,93.800392 377.431671,93.838921 377.184937,93.877449 
	C375.123047,87.751732 373.061188,81.626022 370.902557,74.699211 
M580.442749,88.965004 
	C576.381897,86.534927 572.520752,83.645447 568.216614,81.775200 
	C560.455750,78.402885 556.641174,73.317612 557.895508,64.530838 
	C558.600586,59.591553 560.291809,57.007275 564.502380,57.005756 
	C568.717651,57.004238 571.947266,60.424873 571.995544,64.971016 
	C572.019470,67.221802 571.999695,69.473053 571.999695,71.739090 
	C577.660645,71.739090 582.586060,71.739090 587.875671,71.739090 
	C587.976562,62.977768 589.421143,53.976986 581.302979,48.068813 
	C577.917847,45.605221 573.464722,44.316498 569.301941,43.272335 
	C559.344299,40.774651 545.069824,46.506443 543.521790,54.459805 
	C542.036926,62.088253 542.468506,70.150574 542.603088,78.012894 
	C542.699463,83.641068 546.781921,87.151253 551.116272,89.968613 
	C556.455017,93.438866 561.947754,96.695557 567.532349,99.755447 
	C570.886169,101.593086 572.135803,104.206619 572.014160,107.819351 
	C571.935730,110.147209 572.053833,112.481407 571.987061,114.809998 
	C571.848938,119.627792 569.621521,121.932838 565.138916,121.996941 
	C560.368042,122.065155 558.128662,119.763901 558.010132,114.588669 
	C557.954651,112.165894 558.000610,109.740791 558.000610,107.417091 
	C552.254089,107.417091 547.206360,107.417091 542.001831,107.417091 
	C542.001831,111.158997 541.716919,114.513931 542.056641,117.804359 
	C542.981689,126.762161 545.457397,133.182617 556.206116,134.996475 
	C561.358398,135.865952 566.809814,136.484711 571.920593,135.763260 
	C582.839050,134.222031 587.990234,127.512596 587.999268,116.436966 
	C588.001953,113.107697 587.768616,109.758919 588.047607,106.453194 
	C588.634521,99.499275 586.520508,93.796471 580.442749,88.965004 
M477.103821,109.748993 
	C475.700378,118.019386 474.296967,126.289780 472.819489,134.996643 
	C477.475067,134.996643 481.324646,135.301865 485.079590,134.839111 
	C486.485840,134.665802 488.513855,132.887756 488.809235,131.526855 
	C489.950470,126.268372 490.506805,120.882950 491.319580,115.279404 
	C496.450653,115.279404 501.532562,115.279404 506.707764,115.279404 
	C507.881073,121.972984 509.020874,128.475342 510.115082,134.717529 
	C515.862061,134.717529 520.813782,134.717529 525.980347,134.717529 
	C525.575195,131.504852 525.361938,128.562622 524.814880,125.683800 
	C521.919128,110.444878 518.903259,95.228798 516.001099,79.991066 
	C513.922668,69.078094 512.015747,58.132015 509.858154,47.235195 
	C509.624268,46.054127 508.271820,44.226040 507.371552,44.185684 
	C501.310059,43.914009 495.230591,44.044159 489.516693,44.044159 
	C485.418335,66.228447 481.469513,87.603172 477.103821,109.748993 
M288.904144,126.191376 
	C289.353119,122.627518 289.802094,119.063660 290.280945,115.262497 
	C295.495941,115.262497 300.575653,115.262497 305.743561,115.262497 
	C306.934021,121.987877 308.084076,128.485092 309.184082,134.699615 
	C314.877350,134.699615 319.819275,134.699615 325.329529,134.699615 
	C323.651215,125.837929 322.022644,117.365128 320.445251,108.882805 
	C317.610596,93.639198 314.801453,78.390823 311.992462,63.142448 
	C310.957062,57.521793 311.349731,51.049786 308.585602,46.482330 
	C304.996765,40.552124 297.669434,45.291275 292.142731,44.011108 
	C291.827423,43.938068 291.357483,43.867645 291.166229,44.033875 
	C290.080383,44.977726 288.377441,45.846081 288.124329,47.009796 
	C286.564178,54.183006 285.351410,61.431328 283.993866,68.649170 
	C281.038574,84.362198 278.032501,100.065758 275.116516,115.786057 
	C273.965088,121.993607 272.998352,128.235428 271.856659,135.000000 
	C274.530304,135.000000 276.665710,134.999741 278.801117,135.000046 
	C287.154114,135.001221 287.154114,135.001282 288.904144,126.191376 
M228.180847,121.649788 
	C225.412979,120.399612 223.881119,118.668274 223.918564,115.218063 
	C224.101151,98.388672 223.978256,81.556175 224.014801,64.724892 
	C224.026154,59.493092 226.254517,57.080879 230.882980,57.019722 
	C234.649124,56.969959 237.949738,60.588844 237.994186,64.863792 
	C238.024719,67.801064 238.000061,70.738914 238.000061,73.587540 
	C243.723770,73.587540 248.774490,73.587540 253.995834,73.587540 
	C253.995834,68.682793 254.148376,64.182701 253.960388,59.696877 
	C253.672333,52.822948 249.411575,47.156578 242.754883,45.083267 
	C236.618881,43.172127 230.480316,42.619225 223.893295,43.815594 
	C213.516861,45.700218 208.003372,51.213890 208.001175,61.588051 
	C207.997116,80.752472 207.955902,99.917046 208.019150,119.081261 
	C208.049561,128.291702 212.837051,133.111557 220.659378,134.825760 
	C225.904327,135.975128 231.542877,136.362808 236.878845,135.828430 
	C245.638992,134.951096 251.996597,130.965149 253.574081,122.401947 
	C254.716461,116.200668 253.797043,109.619568 253.797043,103.295639 
	C248.276428,103.295639 243.346313,103.295639 238.000381,103.295639 
	C238.000381,106.716698 238.005569,109.847076 237.999329,112.977448 
	C237.984772,120.284874 236.237961,122.013283 228.180847,121.649788 
M18.084833,78.932243 
	C18.546846,88.217339 19.008858,97.502441 19.485153,107.074623 
	C22.289846,106.930565 24.013073,107.163803 25.531305,106.710487 
	C33.759460,104.253708 40.509296,94.479134 39.987179,86.030991 
	C39.418816,76.834564 32.096581,67.898033 23.564909,66.395203 
	C22.541334,66.214897 20.468090,67.510750 20.174040,68.504784 
	C19.259115,71.597717 18.966091,74.874611 18.084833,78.932243 
M36.490120,39.007786 
	C33.635666,42.786865 30.806335,46.585278 27.917803,50.338127 
	C26.034647,52.784767 27.375896,54.462627 29.352978,55.644775 
	C36.198017,59.737576 48.212193,58.050472 54.139984,52.307045 
	C60.289768,46.348530 62.083664,33.749390 57.914070,26.688198 
	C56.245987,23.863302 54.268940,23.647161 51.953251,25.604582 
	C46.925034,29.854874 41.976723,34.199703 36.490120,39.007786 
M146.535553,44.027653 
	C140.471558,38.310753 134.689896,32.247395 128.246231,26.996387 
	C123.807152,23.378937 120.504089,25.237951 118.975266,30.926277 
	C115.162560,45.112232 123.964027,56.548565 138.109344,57.741577 
	C142.061172,58.074875 147.290176,56.476330 150.088058,53.820240 
	C153.332275,50.740452 148.435669,47.642143 146.535553,44.027653 
M53.781460,148.913132 
	C55.505501,147.248047 58.133766,145.879517 58.794285,143.865616 
	C61.407005,135.899506 60.569366,128.258347 54.419666,121.954689 
	C47.794365,115.163513 39.646240,114.729424 31.129827,117.104759 
	C26.533039,118.386856 25.721462,120.865486 28.428736,124.836647 
	C34.984840,134.453461 43.168163,142.432037 53.781460,148.913132 
M83.627205,16.000032 
	C78.466476,16.656919 73.305740,17.313807 68.139519,17.971392 
	C70.189392,31.869423 81.295013,38.929882 93.355469,36.917538 
	C102.033989,35.469482 110.283997,27.292164 109.423264,17.234949 
	C101.255951,16.828680 92.926315,16.414335 83.627205,16.000032 
M69.112076,154.268341 
	C70.031685,154.858200 70.876595,155.722824 71.882240,155.996201 
	C84.542847,159.437973 97.153107,158.344604 109.737343,155.687073 
	C109.216103,142.279266 97.086472,134.082947 82.911896,137.595444 
	C74.665314,139.638977 70.394623,145.310196 69.112076,154.268341 
M151.727310,68.088829 
	C149.552780,69.158775 146.991592,69.805740 145.274094,71.375679 
	C139.445160,76.703873 137.644547,83.785469 139.294510,91.165588 
	C140.924774,98.457596 145.197067,104.147629 152.930527,106.515778 
	C156.571945,107.630852 158.895355,106.916580 158.948730,102.863281 
	C159.084473,92.552719 159.040359,82.239120 158.991867,71.927094 
	C158.969772,67.228836 156.498016,66.288513 151.727310,68.088829 
M109.018661,114.398476 
	C109.428101,115.451279 109.625450,116.666702 110.285408,117.527405 
	C112.573807,120.511848 115.402420,121.970886 119.246658,120.327515 
	C123.611595,118.461555 124.001846,114.235138 122.608940,111.276871 
	C121.588516,109.109703 117.320633,107.059532 114.848419,107.410492 
	C112.655685,107.721756 110.942863,111.413628 109.018661,114.398476 
M65.740601,53.310520 
	C64.598213,53.207405 63.457291,53.082680 62.313168,53.005192 
	C58.758610,52.764454 56.139771,54.303383 55.233227,57.700630 
	C54.287613,61.244301 55.787853,64.051643 58.949852,65.991570 
	C62.292492,68.042320 64.909134,66.657822 67.204964,64.252419 
	C70.753365,60.534653 69.134636,57.132317 65.740601,53.310520 
M65.244720,119.931885 
	C65.760872,119.518311 66.283073,119.112045 66.792191,118.689980 
	C70.193092,115.870537 69.540466,112.525864 67.620224,109.379425 
	C65.950462,106.643402 60.594151,106.005928 57.758530,108.139206 
	C54.960693,110.244049 54.062862,113.066597 55.814087,116.379410 
	C57.701542,119.949936 60.146229,122.225746 65.244720,119.931885 
M57.151978,89.420937 
	C58.588890,84.562485 57.424030,81.560631 53.600906,80.269783 
	C49.937840,79.032974 45.859055,80.700119 44.507759,83.986465 
	C43.007706,87.634598 44.747978,91.371376 48.659645,93.251282 
	C52.554371,95.123039 54.824696,92.922874 57.151978,89.420937 
M83.057884,121.789833 
	C83.379936,124.679283 82.686996,128.687042 84.301537,130.152420 
	C86.011551,131.704437 90.348877,131.792221 92.718918,130.715332 
	C94.485107,129.912827 95.990974,126.091415 95.681671,123.885208 
	C95.397392,121.857384 92.752029,119.058548 90.746147,118.670448 
	C88.547607,118.245064 85.890213,120.191246 83.057884,121.789833 
M91.078873,42.011097 
	C90.249252,42.007565 89.418976,41.980831 88.590126,42.004387 
	C84.323219,42.125660 81.641182,44.701050 82.069023,48.765202 
	C82.462349,52.501633 84.070572,55.105862 88.634491,55.106113 
	C92.029846,55.106304 94.818123,54.159859 95.756004,51.088070 
	C96.882195,47.399551 96.042953,43.854454 91.078873,42.011097 
M114.758919,65.998093 
	C116.641556,65.680984 118.759926,65.806473 120.358086,64.955254 
	C123.756302,63.145283 123.697571,59.592293 122.669434,56.680141 
	C121.500443,53.369003 118.355827,52.651039 114.920280,52.970947 
	C111.060799,53.330334 109.515846,55.980343 109.173996,59.117550 
	C108.816139,62.401680 110.151360,65.218704 114.758919,65.998093 
M127.502823,93.962738 
	C128.255722,93.670624 129.003876,93.365517 129.762314,93.088577 
	C133.711334,91.646614 135.313507,88.534500 133.895050,84.185966 
	C132.675278,80.446510 129.581589,79.435562 125.997704,80.046097 
	C122.367508,80.664520 121.012619,83.038300 120.931908,86.689079 
	C120.838493,90.914413 123.052895,92.884697 127.502823,93.962738 
z"/>
<path fill="#E22B27" opacity="1.000000" stroke="none" 
	d="
M370.950928,75.099762 
	C373.061188,81.626022 375.123047,87.751732 377.184937,93.877449 
	C377.431671,93.838921 377.678436,93.800392 377.925201,93.761871 
	C377.925201,77.408951 377.925201,61.056026 377.925201,44.353554 
	C383.019440,44.353554 387.729279,44.353554 392.721985,44.353554 
	C392.721985,74.377296 392.721985,104.291840 392.721985,134.963226 
	C388.376068,134.963226 383.942749,135.175049 379.558563,134.804993 
	C378.541840,134.719177 377.290894,132.789352 376.827820,131.469437 
	C371.481110,116.230560 366.267365,100.945038 361.011078,85.674408 
	C360.601562,84.484680 360.137665,83.313690 359.090332,82.239967 
	C359.090332,99.587509 359.090332,116.935043 359.090332,134.639084 
	C353.996460,134.639084 349.287750,134.639084 344.284424,134.639084 
	C344.284424,104.639404 344.284424,74.724693 344.284424,44.035095 
	C348.932739,44.035095 353.692688,43.876408 358.424561,44.170406 
	C359.359070,44.228466 360.571350,45.886337 361.000305,47.048313 
	C364.390656,56.232193 367.622192,65.474716 370.950928,75.099762 
z"/>
<path fill="#E22B27" opacity="1.000000" stroke="none" 
	d="
M580.706055,89.213181 
	C586.520508,93.796471 588.634521,99.499275 588.047607,106.453194 
	C587.768616,109.758919 588.001953,113.107697 587.999268,116.436966 
	C587.990234,127.512596 582.839050,134.222031 571.920593,135.763260 
	C566.809814,136.484711 561.358398,135.865952 556.206116,134.996475 
	C545.457397,133.182617 542.981689,126.762161 542.056641,117.804359 
	C541.716919,114.513931 542.001831,111.158997 542.001831,107.417091 
	C547.206360,107.417091 552.254089,107.417091 558.000610,107.417091 
	C558.000610,109.740791 557.954651,112.165894 558.010132,114.588669 
	C558.128662,119.763901 560.368042,122.065155 565.138916,121.996941 
	C569.621521,121.932838 571.848938,119.627792 571.987061,114.809998 
	C572.053833,112.481407 571.935730,110.147209 572.014160,107.819351 
	C572.135803,104.206619 570.886169,101.593086 567.532349,99.755447 
	C561.947754,96.695557 556.455017,93.438866 551.116272,89.968613 
	C546.781921,87.151253 542.699463,83.641068 542.603088,78.012894 
	C542.468506,70.150574 542.036926,62.088253 543.521790,54.459805 
	C545.069824,46.506443 559.344299,40.774651 569.301941,43.272335 
	C573.464722,44.316498 577.917847,45.605221 581.302979,48.068813 
	C589.421143,53.976986 587.976562,62.977768 587.875671,71.739090 
	C582.586060,71.739090 577.660645,71.739090 571.999695,71.739090 
	C571.999695,69.473053 572.019470,67.221802 571.995544,64.971016 
	C571.947266,60.424873 568.717651,57.004238 564.502380,57.005756 
	C560.291809,57.007275 558.600586,59.591553 557.895508,64.530838 
	C556.641174,73.317612 560.455750,78.402885 568.216614,81.775200 
	C572.520752,83.645447 576.381897,86.534927 580.706055,89.213181 
z"/>
<path fill="#E22B27" opacity="1.000000" stroke="none" 
	d="
M477.312256,109.363441 
	C481.469513,87.603172 485.418335,66.228447 489.516693,44.044159 
	C495.230591,44.044159 501.310059,43.914009 507.371552,44.185684 
	C508.271820,44.226040 509.624268,46.054127 509.858154,47.235195 
	C512.015747,58.132015 513.922668,69.078094 516.001099,79.991066 
	C518.903259,95.228798 521.919128,110.444878 524.814880,125.683800 
	C525.361938,128.562622 525.575195,131.504852 525.980347,134.717529 
	C520.813782,134.717529 515.862061,134.717529 510.115082,134.717529 
	C509.020874,128.475342 507.881073,121.972984 506.707764,115.279404 
	C501.532562,115.279404 496.450653,115.279404 491.319580,115.279404 
	C490.506805,120.882950 489.950470,126.268372 488.809235,131.526855 
	C488.513855,132.887756 486.485840,134.665802 485.079590,134.839111 
	C481.324646,135.301865 477.475067,134.996643 472.819489,134.996643 
	C474.296967,126.289780 475.700378,118.019386 477.312256,109.363441 
M501.235443,101.999374 
	C502.380127,101.916222 503.524780,101.833076 504.700989,101.747643 
	C502.997498,90.894302 501.322083,80.219719 499.646667,69.545135 
	C499.281281,69.519966 498.915924,69.494797 498.550568,69.469627 
	C496.914429,80.104141 495.278290,90.738655 493.545746,101.999886 
	C496.422150,101.999886 498.377472,101.999886 501.235443,101.999374 
z"/>
<path fill="#E22B27" opacity="1.000000" stroke="none" 
	d="
M288.710449,126.586472 
	C287.154114,135.001282 287.154114,135.001221 278.801117,135.000046 
	C276.665710,134.999741 274.530304,135.000000 271.856659,135.000000 
	C272.998352,128.235428 273.965088,121.993607 275.116516,115.786057 
	C278.032501,100.065758 281.038574,84.362198 283.993866,68.649170 
	C285.351410,61.431328 286.564178,54.183006 288.124329,47.009796 
	C288.377441,45.846081 290.080383,44.977726 291.166229,44.033875 
	C291.357483,43.867645 291.827423,43.938068 292.142731,44.011108 
	C297.669434,45.291275 304.996765,40.552124 308.585602,46.482330 
	C311.349731,51.049786 310.957062,57.521793 311.992462,63.142448 
	C314.801453,78.390823 317.610596,93.639198 320.445251,108.882805 
	C322.022644,117.365128 323.651215,125.837929 325.329529,134.699615 
	C319.819275,134.699615 314.877350,134.699615 309.184082,134.699615 
	C308.084076,128.485092 306.934021,121.987877 305.743561,115.262497 
	C300.575653,115.262497 295.495941,115.262497 290.280945,115.262497 
	C289.802094,119.063660 289.353119,122.627518 288.710449,126.586472 
M297.538086,101.999802 
	C299.611816,101.999802 301.685547,101.999802 303.777649,101.999802 
	C301.988068,90.522675 300.303955,79.722015 298.610565,68.861839 
	C298.266418,69.230011 297.696930,69.549660 297.632782,69.950241 
	C296.058655,79.776947 294.460266,89.602119 293.177338,99.468018 
	C293.088593,100.150604 295.420593,101.147972 297.538086,101.999802 
z"/>
<path fill="#E22B27" opacity="1.000000" stroke="none" 
	d="
M228.571442,121.790909 
	C236.237961,122.013283 237.984772,120.284874 237.999329,112.977448 
	C238.005569,109.847076 238.000381,106.716698 238.000381,103.295639 
	C243.346313,103.295639 248.276428,103.295639 253.797043,103.295639 
	C253.797043,109.619568 254.716461,116.200668 253.574081,122.401947 
	C251.996597,130.965149 245.638992,134.951096 236.878845,135.828430 
	C231.542877,136.362808 225.904327,135.975128 220.659378,134.825760 
	C212.837051,133.111557 208.049561,128.291702 208.019150,119.081261 
	C207.955902,99.917046 207.997116,80.752472 208.001175,61.588051 
	C208.003372,51.213890 213.516861,45.700218 223.893295,43.815594 
	C230.480316,42.619225 236.618881,43.172127 242.754883,45.083267 
	C249.411575,47.156578 253.672333,52.822948 253.960388,59.696877 
	C254.148376,64.182701 253.995834,68.682793 253.995834,73.587540 
	C248.774490,73.587540 243.723770,73.587540 238.000061,73.587540 
	C238.000061,70.738914 238.024719,67.801064 237.994186,64.863792 
	C237.949738,60.588844 234.649124,56.969959 230.882980,57.019722 
	C226.254517,57.080879 224.026154,59.493092 224.014801,64.724892 
	C223.978256,81.556175 224.101151,98.388672 223.918564,115.218063 
	C223.881119,118.668274 225.412979,120.399612 228.571442,121.790909 
z"/>
<path fill="#E22B27" opacity="1.000000" stroke="none" 
	d="
M428.115021,45.957695 
	C429.409332,53.294022 430.778259,60.618156 431.979492,67.969696 
	C433.561310,77.650360 435.017273,87.351646 436.513855,97.046150 
	C436.896118,99.522415 437.227509,102.006523 438.625031,104.434166 
	C441.778381,84.418999 444.931732,64.403824 448.111115,44.223446 
	C453.052399,44.223446 457.663818,44.223446 463.516510,44.223446 
	C457.851227,74.524063 452.238678,104.542587 446.586761,134.771545 
	C440.911255,134.771545 435.298950,134.771545 429.120056,134.771545 
	C427.092194,124.488724 425.002625,114.145218 423.021759,103.780937 
	C420.815704,92.238121 418.666992,80.683937 416.573792,69.120132 
	C415.293762,62.048595 414.165100,54.949654 413.376221,47.432526 
	C418.560974,46.653912 423.338013,46.305801 428.115021,45.957695 
z"/>
<path fill="#E22B27" opacity="1.000000" stroke="none" 
	d="
M18.258339,78.506195 
	C18.966091,74.874611 19.259115,71.597717 20.174040,68.504784 
	C20.468090,67.510750 22.541334,66.214897 23.564909,66.395203 
	C32.096581,67.898033 39.418816,76.834564 39.987179,86.030991 
	C40.509296,94.479134 33.759460,104.253708 25.531305,106.710487 
	C24.013073,107.163803 22.289846,106.930565 19.485153,107.074623 
	C19.008858,97.502441 18.546846,88.217339 18.258339,78.506195 
z"/>
<path fill="#E22B27" opacity="1.000000" stroke="none" 
	d="
M36.742931,38.756836 
	C41.976723,34.199703 46.925034,29.854874 51.953251,25.604582 
	C54.268940,23.647161 56.245987,23.863302 57.914070,26.688198 
	C62.083664,33.749390 60.289768,46.348530 54.139984,52.307045 
	C48.212193,58.050472 36.198017,59.737576 29.352978,55.644775 
	C27.375896,54.462627 26.034647,52.784767 27.917803,50.338127 
	C30.806335,46.585278 33.635666,42.786865 36.742931,38.756836 
z"/>
<path fill="#E22B27" opacity="1.000000" stroke="none" 
	d="
M146.787827,44.295464 
	C148.435669,47.642143 153.332275,50.740452 150.088058,53.820240 
	C147.290176,56.476330 142.061172,58.074875 138.109344,57.741577 
	C123.964027,56.548565 115.162560,45.112232 118.975266,30.926277 
	C120.504089,25.237951 123.807152,23.378937 128.246231,26.996387 
	C134.689896,32.247395 140.471558,38.310753 146.787827,44.295464 
z"/>
<path fill="#E22B27" opacity="1.000000" stroke="none" 
	d="
M53.437172,148.744049 
	C43.168163,142.432037 34.984840,134.453461 28.428736,124.836647 
	C25.721462,120.865486 26.533039,118.386856 31.129827,117.104759 
	C39.646240,114.729424 47.794365,115.163513 54.419666,121.954689 
	C60.569366,128.258347 61.407005,135.899506 58.794285,143.865616 
	C58.133766,145.879517 55.505501,147.248047 53.437172,148.744049 
z"/>
<path fill="#E22B27" opacity="1.000000" stroke="none" 
	d="
M84.111938,16.000013 
	C92.926315,16.414335 101.255951,16.828680 109.423264,17.234949 
	C110.283997,27.292164 102.033989,35.469482 93.355469,36.917538 
	C81.295013,38.929882 70.189392,31.869423 68.139519,17.971392 
	C73.305740,17.313807 78.466476,16.656919 84.111938,16.000013 
z"/>
<path fill="#E22B27" opacity="1.000000" stroke="none" 
	d="
M69.076546,153.863037 
	C70.394623,145.310196 74.665314,139.638977 82.911896,137.595444 
	C97.086472,134.082947 109.216103,142.279266 109.737343,155.687073 
	C97.153107,158.344604 84.542847,159.437973 71.882240,155.996201 
	C70.876595,155.722824 70.031685,154.858200 69.076546,153.863037 
z"/>
<path fill="#E22B27" opacity="1.000000" stroke="none" 
	d="
M152.116837,68.044235 
	C156.498016,66.288513 158.969772,67.228836 158.991867,71.927094 
	C159.040359,82.239120 159.084473,92.552719 158.948730,102.863281 
	C158.895355,106.916580 156.571945,107.630852 152.930527,106.515778 
	C145.197067,104.147629 140.924774,98.457596 139.294510,91.165588 
	C137.644547,83.785469 139.445160,76.703873 145.274094,71.375679 
	C146.991592,69.805740 149.552780,69.158775 152.116837,68.044235 
z"/>
<path fill="#E22B27" opacity="1.000000" stroke="none" 
	d="
M122.000259,146.833328 
	C117.571922,142.613953 116.705200,136.089645 119.613411,128.866318 
	C124.219017,117.427078 137.464508,112.293564 148.382278,117.955025 
	C149.735229,118.656609 151.483902,121.512207 151.064087,122.270096 
	C146.147781,131.145660 139.197159,138.305435 131.107086,144.369110 
	C130.508926,144.817444 129.570801,144.812195 128.184906,144.920914 
	C126.719383,144.882675 125.859688,144.941345 124.695511,145.053131 
	C123.594101,145.681946 122.797180,146.257645 122.000259,146.833328 
z"/>
<path fill="#E22B27" opacity="1.000000" stroke="none" 
	d="
M109.018425,114.005829 
	C110.942863,111.413628 112.655685,107.721756 114.848419,107.410492 
	C117.320633,107.059532 121.588516,109.109703 122.608940,111.276871 
	C124.001846,114.235138 123.611595,118.461555 119.246658,120.327515 
	C115.402420,121.970886 112.573807,120.511848 110.285408,117.527405 
	C109.625450,116.666702 109.428101,115.451279 109.018425,114.005829 
z"/>
<path fill="#E22B27" opacity="1.000000" stroke="none" 
	d="
M66.036011,53.598412 
	C69.134636,57.132317 70.753365,60.534653 67.204964,64.252419 
	C64.909134,66.657822 62.292492,68.042320 58.949852,65.991570 
	C55.787853,64.051643 54.287613,61.244301 55.233227,57.700630 
	C56.139771,54.303383 58.758610,52.764454 62.313168,53.005192 
	C63.457291,53.082680 64.598213,53.207405 66.036011,53.598412 
z"/>
<path fill="#E22B27" opacity="1.000000" stroke="none" 
	d="
M64.863235,120.023193 
	C60.146229,122.225746 57.701542,119.949936 55.814087,116.379410 
	C54.062862,113.066597 54.960693,110.244049 57.758530,108.139206 
	C60.594151,106.005928 65.950462,106.643402 67.620224,109.379425 
	C69.540466,112.525864 70.193092,115.870537 66.792191,118.689980 
	C66.283073,119.112045 65.760872,119.518311 64.863235,120.023193 
z"/>
<path fill="#E22B27" opacity="1.000000" stroke="none" 
	d="
M57.050625,89.800804 
	C54.824696,92.922874 52.554371,95.123039 48.659645,93.251282 
	C44.747978,91.371376 43.007706,87.634598 44.507759,83.986465 
	C45.859055,80.700119 49.937840,79.032974 53.600906,80.269783 
	C57.424030,81.560631 58.588890,84.562485 57.050625,89.800804 
z"/>
<path fill="#E22B27" opacity="1.000000" stroke="none" 
	d="
M83.245331,121.446892 
	C85.890213,120.191246 88.547607,118.245064 90.746147,118.670448 
	C92.752029,119.058548 95.397392,121.857384 95.681671,123.885208 
	C95.990974,126.091415 94.485107,129.912827 92.718918,130.715332 
	C90.348877,131.792221 86.011551,131.704437 84.301537,130.152420 
	C82.686996,128.687042 83.379936,124.679283 83.245331,121.446892 
z"/>
<path fill="#E22B27" opacity="1.000000" stroke="none" 
	d="
M91.497955,42.034317 
	C96.042953,43.854454 96.882195,47.399551 95.756004,51.088070 
	C94.818123,54.159859 92.029846,55.106304 88.634491,55.106113 
	C84.070572,55.105862 82.462349,52.501633 82.069023,48.765202 
	C81.641182,44.701050 84.323219,42.125660 88.590126,42.004387 
	C89.418976,41.980831 90.249252,42.007565 91.497955,42.034317 
z"/>
<path fill="#E22B27" opacity="1.000000" stroke="none" 
	d="
M114.344055,65.993774 
	C110.151360,65.218704 108.816139,62.401680 109.173996,59.117550 
	C109.515846,55.980343 111.060799,53.330334 114.920280,52.970947 
	C118.355827,52.651039 121.500443,53.369003 122.669434,56.680141 
	C123.697571,59.592293 123.756302,63.145283 120.358086,64.955254 
	C118.759926,65.806473 116.641556,65.680984 114.344055,65.993774 
z"/>
<path fill="#E22B27" opacity="1.000000" stroke="none" 
	d="
M127.105835,93.931015 
	C123.052895,92.884697 120.838493,90.914413 120.931908,86.689079 
	C121.012619,83.038300 122.367508,80.664520 125.997704,80.046097 
	C129.581589,79.435562 132.675278,80.446510 133.895050,84.185966 
	C135.313507,88.534500 133.711334,91.646614 129.762314,93.088577 
	C129.003876,93.365517 128.255722,93.670624 127.105835,93.931015 
z"/>
<path fill="#E22B27" opacity="1.000000" stroke="none" 
	d="
M428.032227,45.535156 
	C423.338013,46.305801 418.560974,46.653912 413.311035,47.002571 
	C413.045258,46.116249 413.270630,44.451721 413.456940,44.456085 
	C418.290222,44.569241 423.119476,44.855919 428.032227,45.535156 
z"/>
<path fill="#E22B27" opacity="1.000000" stroke="none" 
	d="
M125.000000,145.000000 
	C125.859688,144.941345 126.719383,144.882675 127.814476,144.965332 
	C127.226624,145.701843 126.403366,146.297028 125.291016,146.666870 
	C125.001282,145.961044 125.000641,145.480515 125.000000,145.000000 
z"/>
<path fill="#E22B27" opacity="1.000000" stroke="none" 
	d="
M124.695511,145.053131 
	C125.000641,145.480515 125.001282,145.961044 125.002510,146.801941 
	C124.263260,147.194931 123.523438,147.227509 122.391937,147.046707 
	C122.797180,146.257645 123.594101,145.681946 124.695511,145.053131 
z"/>
<path fill="#000000" opacity="1.000000" stroke="none" 
	d="
M500.784119,101.999634 
	C498.377472,101.999886 496.422150,101.999886 493.545746,101.999886 
	C495.278290,90.738655 496.914429,80.104141 498.550568,69.469627 
	C498.915924,69.494797 499.281281,69.519966 499.646667,69.545135 
	C501.322083,80.219719 502.997498,90.894302 504.700989,101.747643 
	C503.524780,101.833076 502.380127,101.916222 500.784119,101.999634 
z"/>
<path fill="#000000" opacity="1.000000" stroke="none" 
	d="
M297.082458,101.999374 
	C295.420593,101.147972 293.088593,100.150604 293.177338,99.468018 
	C294.460266,89.602119 296.058655,79.776947 297.632782,69.950241 
	C297.696930,69.549660 298.266418,69.230011 298.610565,68.861839 
	C300.303955,79.722015 301.988068,90.522675 303.777649,101.999802 
	C301.685547,101.999802 299.611816,101.999802 297.082458,101.999374 
z"/>
</svg>