<svg version="1.1" id="Layer_1" xmlns="http://www.w3.org/2000/svg" xmlns:xlink="http://www.w3.org/1999/xlink" x="0px" y="0px"
	 width="100%" viewBox="0 0 400 80" enable-background="new 0 0 400 80" xml:space="preserve">
<path fill="#FCFCFC" opacity="1.000000" stroke="none" 
	d="
M292.000000,81.000000 
	C194.666672,81.000000 97.833359,81.000000 1.000026,81.000000 
	C1.000017,54.333347 1.000017,27.666697 1.000009,1.000033 
	C134.333298,1.000022 267.666595,1.000022 400.999939,1.000011 
	C400.999939,27.666634 400.999939,54.333267 400.999969,80.999954 
	C364.833344,81.000000 328.666656,81.000000 292.000000,81.000000 
M264.918488,45.978798 
	C275.861389,45.978798 286.804291,45.978798 297.656158,45.978798 
	C299.914337,32.009743 291.680054,20.942369 277.598389,18.379562 
	C261.925385,15.527138 248.442123,23.444967 245.511993,37.221798 
	C242.360474,52.039700 250.009583,63.794216 265.132599,67.373123 
	C280.111389,70.917892 294.424957,64.214363 297.587006,52.000385 
	C294.381439,52.000385 291.225647,51.984535 288.070068,52.004425 
	C284.174774,52.028980 280.718628,52.031448 277.101379,54.945427 
	C271.632996,59.350651 263.297394,54.374897 263.205811,46.869171 
	C263.467133,46.620979 263.728424,46.372787 264.918488,45.978798 
M385.286346,19.570307 
	C380.319336,20.535883 374.307312,16.425861 370.320465,22.568577 
	C359.036530,15.394454 346.657013,16.734949 338.393036,26.099218 
	C330.363342,35.198006 330.146851,49.793324 337.882385,59.246140 
	C341.617645,63.810635 346.367523,66.804199 352.154724,67.748070 
	C358.950592,68.856468 365.353302,67.704323 370.702942,62.751411 
	C372.223816,67.057129 380.121918,68.289337 388.286407,65.885147 
	C388.286407,51.286205 388.286407,36.665031 388.410645,21.244543 
	C387.618988,20.789869 386.827332,20.335196 385.286346,19.570307 
M75.989868,18.255362 
	C67.860008,20.777620 62.351196,26.291395 58.537136,33.674908 
	C56.246346,38.109573 54.221558,42.685673 51.831730,47.064220 
	C48.194916,53.727436 42.193226,56.109425 34.951363,54.037979 
	C29.479168,52.472729 26.228872,47.713745 26.691389,41.943966 
	C27.111712,36.700588 31.257036,32.080643 36.729660,31.978493 
	C40.846111,31.901659 44.986877,33.127960 49.826061,33.885132 
	C51.703091,30.476034 54.055748,26.203087 56.377964,21.985432 
	C40.083538,11.203021 18.101835,17.847824 12.186942,34.825928 
	C7.855218,47.259705 13.641064,61.330589 25.760530,66.650414 
	C38.312428,72.160042 56.015255,70.230675 63.725960,56.595463 
	C67.245522,50.371651 70.400833,43.927197 74.179466,37.868526 
	C78.187431,31.442169 86.863373,29.765909 93.079300,33.724911 
	C98.258568,37.023647 100.005524,43.467800 97.093040,48.530796 
	C93.543739,54.700825 84.989998,56.788960 78.184647,53.120705 
	C77.310677,52.649609 76.478348,52.080399 75.692085,51.472153 
	C74.418045,50.486565 73.198158,49.430984 71.666519,48.166431 
	C69.281387,52.559307 67.088715,56.597721 64.834511,60.749462 
	C72.187454,68.626900 81.252731,70.356987 91.034508,68.916290 
	C101.362358,67.395172 108.975388,61.563667 112.714050,51.849003 
	C116.276810,42.591358 114.454773,33.700214 107.819901,26.225513 
	C99.365990,16.701532 88.579964,15.257714 75.989868,18.255362 
M165.097733,25.636238 
	C165.097733,23.716076 165.097733,21.795912 165.097733,19.454514 
	C160.449036,19.454514 156.465302,19.651814 152.511200,19.394184 
	C149.143829,19.174784 148.221008,20.470945 148.298706,23.693283 
	C148.479202,31.180565 148.619461,38.695480 148.130081,46.156822 
	C147.972900,48.553326 146.372345,51.754250 144.425034,52.958179 
	C139.464996,56.024715 133.937592,52.386574 133.840652,46.319370 
	C133.700577,37.553921 133.804810,28.784567 133.804810,19.732265 
	C127.930641,19.732265 122.694237,19.732265 116.991104,19.732265 
	C116.991104,29.144743 116.894485,38.266376 117.015823,47.385113 
	C117.164001,58.521492 122.977753,65.675491 133.966782,67.439064 
	C138.644989,68.189842 143.659286,68.150887 148.333176,67.360703 
	C159.077316,65.544273 164.773026,58.527298 165.035568,47.583965 
	C165.203247,40.594994 165.085144,33.599163 165.097733,25.636238 
M206.897629,25.541704 
	C200.652939,35.906456 203.874481,44.151005 215.376678,47.204041 
	C216.979584,47.629498 218.655350,47.825687 220.210846,48.373650 
	C222.410477,49.148537 226.136627,49.312267 224.834198,52.677612 
	C224.235138,54.225517 220.511078,55.599068 218.436829,55.320210 
	C214.423355,54.780651 210.574799,53.014252 206.582016,51.731972 
	C199.203659,64.125267 196.937469,63.336258 212.921906,67.363640 
	C221.280869,69.469734 229.916885,68.588791 237.092255,62.766430 
	C241.882080,58.879772 243.622543,53.671608 242.502197,47.598743 
	C241.378159,41.505798 236.868774,38.871140 231.521744,37.275745 
	C229.137878,36.564465 226.538712,36.468143 224.264725,35.537140 
	C222.998718,35.018826 222.200180,33.358742 221.190964,32.213207 
	C222.339645,31.412006 223.488373,29.934944 224.636993,29.935034 
	C228.230087,29.935318 231.823120,30.493135 236.020828,30.892412 
	C237.641998,27.912006 239.470184,24.551041 241.549789,20.727852 
	C228.820328,17.280458 217.359680,15.413582 206.897629,25.541704 
M200.899307,32.455570 
	C202.392059,28.138247 203.884827,23.820921 205.463196,19.255976 
	C197.264511,18.134817 191.202789,20.284298 186.181824,26.500650 
	C186.015762,23.557348 185.913742,21.749155 185.806656,19.851212 
	C180.118591,19.851212 174.605576,19.851212 169.141968,19.851212 
	C169.141968,35.638554 169.141968,51.007019 169.141968,66.375626 
	C174.935287,66.375626 180.327286,66.375626 185.991302,66.375626 
	C185.991302,60.862698 185.992325,55.718285 185.991104,50.573875 
	C185.987885,36.999607 187.426498,35.284889 200.899307,32.455570 
M334.414337,18.953062 
	C328.034973,18.500654 322.926331,21.190899 318.368958,26.203014 
	C318.140228,23.537489 317.977844,21.645365 317.818756,19.791142 
	C312.068359,19.791142 306.659790,19.791142 301.315430,19.791142 
	C301.315430,35.559624 301.315430,50.954849 301.315430,66.321808 
	C307.095673,66.321808 312.470245,66.321808 318.763306,66.321808 
	C318.763306,58.092564 318.475403,50.277233 318.865967,42.495956 
	C319.120209,37.430946 322.260529,34.392216 327.523071,33.753937 
	C328.720490,33.608707 330.274872,33.128040 330.913635,32.253181 
	C333.058929,29.315022 335.085815,26.235401 336.657867,22.969198 
	C337.094788,22.061363 335.799164,20.319643 334.414337,18.953062 
z"/>
<path fill="#515151" opacity="1.000000" stroke="none" 
	d="
M76.383621,18.138899 
	C88.579964,15.257714 99.365990,16.701532 107.819901,26.225513 
	C114.454773,33.700214 116.276810,42.591358 112.714050,51.849003 
	C108.975388,61.563667 101.362358,67.395172 91.034508,68.916290 
	C81.252731,70.356987 72.187454,68.626900 64.834511,60.749462 
	C67.088715,56.597721 69.281387,52.559307 71.666519,48.166431 
	C73.198158,49.430984 74.418045,50.486565 75.692085,51.472153 
	C76.478348,52.080399 77.310677,52.649609 78.184647,53.120705 
	C84.989998,56.788960 93.543739,54.700825 97.093040,48.530796 
	C100.005524,43.467800 98.258568,37.023647 93.079300,33.724911 
	C86.863373,29.765909 78.187431,31.442169 74.179466,37.868526 
	C70.400833,43.927197 67.245522,50.371651 63.725960,56.595463 
	C56.015255,70.230675 38.312428,72.160042 25.760530,66.650414 
	C13.641064,61.330589 7.855218,47.259705 12.186942,34.825928 
	C18.101835,17.847824 40.083538,11.203021 56.377964,21.985432 
	C54.055748,26.203087 51.703091,30.476034 49.826061,33.885132 
	C44.986877,33.127960 40.846111,31.901659 36.729660,31.978493 
	C31.257036,32.080643 27.111712,36.700588 26.691389,41.943966 
	C26.228872,47.713745 29.479168,52.472729 34.951363,54.037979 
	C42.193226,56.109425 48.194916,53.727436 51.831730,47.064220 
	C54.221558,42.685673 56.246346,38.109573 58.537136,33.674908 
	C62.351196,26.291395 67.860008,20.777620 76.383621,18.138899 
z"/>
<path fill="#535353" opacity="1.000000" stroke="none" 
	d="
M388.286407,22.043858 
	C388.286407,36.665031 388.286407,51.286205 388.286407,65.885147 
	C380.121918,68.289337 372.223816,67.057129 370.702942,62.751411 
	C365.353302,67.704323 358.950592,68.856468 352.154724,67.748070 
	C346.367523,66.804199 341.617645,63.810635 337.882385,59.246140 
	C330.146851,49.793324 330.363342,35.198006 338.393036,26.099218 
	C346.657013,16.734949 359.036530,15.394454 370.320465,22.568577 
	C374.307312,16.425861 380.319336,20.535883 385.699890,20.081188 
	C386.837738,21.075996 387.562073,21.559925 388.286407,22.043858 
M366.338928,52.357616 
	C371.966003,48.677731 373.600647,42.770267 370.453339,37.488403 
	C367.726349,32.911945 360.589539,31.216883 355.444061,33.923531 
	C350.708008,36.414814 348.800842,42.400478 351.064911,47.667419 
	C353.164185,52.551003 357.807068,54.161434 366.338928,52.357616 
z"/>
<path fill="#515151" opacity="1.000000" stroke="none" 
	d="
M262.671021,47.001846 
	C263.297394,54.374897 271.632996,59.350651 277.101379,54.945427 
	C280.718628,52.031448 284.174774,52.028980 288.070068,52.004425 
	C291.225647,51.984535 294.381439,52.000385 297.587006,52.000385 
	C294.424957,64.214363 280.111389,70.917892 265.132599,67.373123 
	C250.009583,63.794216 242.360474,52.039700 245.511993,37.221798 
	C248.442123,23.444967 261.925385,15.527138 277.598389,18.379562 
	C291.680054,20.942369 299.914337,32.009743 297.656158,45.978798 
	C286.804291,45.978798 275.861389,45.978798 264.125916,46.000481 
	C263.112549,46.348724 262.891785,46.675285 262.671021,47.001846 
M274.909271,29.120531 
	C267.448273,28.773695 264.367554,30.564487 263.371307,35.702091 
	C269.498840,35.702091 275.646057,35.702091 281.793304,35.702091 
	C282.005157,35.280781 282.216980,34.859467 282.428833,34.438156 
	C280.180634,32.740242 277.932404,31.042326 274.909271,29.120531 
z"/>
<path fill="#525252" opacity="1.000000" stroke="none" 
	d="
M165.096451,26.121323 
	C165.085144,33.599163 165.203247,40.594994 165.035568,47.583965 
	C164.773026,58.527298 159.077316,65.544273 148.333176,67.360703 
	C143.659286,68.150887 138.644989,68.189842 133.966782,67.439064 
	C122.977753,65.675491 117.164001,58.521492 117.015823,47.385113 
	C116.894485,38.266376 116.991104,29.144743 116.991104,19.732265 
	C122.694237,19.732265 127.930641,19.732265 133.804810,19.732265 
	C133.804810,28.784567 133.700577,37.553921 133.840652,46.319370 
	C133.937592,52.386574 139.464996,56.024715 144.425034,52.958179 
	C146.372345,51.754250 147.972900,48.553326 148.130081,46.156822 
	C148.619461,38.695480 148.479202,31.180565 148.298706,23.693283 
	C148.221008,20.470945 149.143829,19.174784 152.511200,19.394184 
	C156.465302,19.651814 160.449036,19.454514 165.097733,19.454514 
	C165.097733,21.795912 165.097733,23.716076 165.096451,26.121323 
z"/>
<path fill="#525252" opacity="1.000000" stroke="none" 
	d="
M207.118073,25.244263 
	C217.359680,15.413582 228.820328,17.280458 241.549789,20.727852 
	C239.470184,24.551041 237.641998,27.912006 236.020828,30.892412 
	C231.823120,30.493135 228.230087,29.935318 224.636993,29.935034 
	C223.488373,29.934944 222.339645,31.412006 221.190964,32.213211 
	C222.200180,33.358742 222.998718,35.018826 224.264725,35.537140 
	C226.538712,36.468143 229.137878,36.564465 231.521744,37.275745 
	C236.868774,38.871140 241.378159,41.505798 242.502197,47.598743 
	C243.622543,53.671608 241.882080,58.879772 237.092255,62.766430 
	C229.916885,68.588791 221.280869,69.469734 212.921906,67.363640 
	C196.937469,63.336258 199.203659,64.125267 206.582016,51.731972 
	C210.574799,53.014252 214.423355,54.780651 218.436829,55.320210 
	C220.511078,55.599068 224.235138,54.225517 224.834198,52.677612 
	C226.136627,49.312267 222.410477,49.148537 220.210846,48.373650 
	C218.655350,47.825687 216.979584,47.629498 215.376678,47.204041 
	C203.874481,44.151005 200.652939,35.906456 207.118073,25.244263 
z"/>
<path fill="#525252" opacity="1.000000" stroke="none" 
	d="
M200.735382,32.827831 
	C187.426498,35.284889 185.987885,36.999607 185.991104,50.573875 
	C185.992325,55.718285 185.991302,60.862698 185.991302,66.375626 
	C180.327286,66.375626 174.935287,66.375626 169.141968,66.375626 
	C169.141968,51.007019 169.141968,35.638554 169.141968,19.851212 
	C174.605576,19.851212 180.118591,19.851212 185.806656,19.851212 
	C185.913742,21.749155 186.015762,23.557348 186.181824,26.500650 
	C191.202789,20.284298 197.264511,18.134817 205.463196,19.255976 
	C203.884827,23.820921 202.392059,28.138247 200.735382,32.827831 
z"/>
<path fill="#525252" opacity="1.000000" stroke="none" 
	d="
M334.856354,18.956776 
	C335.799164,20.319643 337.094788,22.061363 336.657867,22.969198 
	C335.085815,26.235401 333.058929,29.315022 330.913635,32.253181 
	C330.274872,33.128040 328.720490,33.608707 327.523071,33.753937 
	C322.260529,34.392216 319.120209,37.430946 318.865967,42.495956 
	C318.475403,50.277233 318.763306,58.092564 318.763306,66.321808 
	C312.470245,66.321808 307.095673,66.321808 301.315430,66.321808 
	C301.315430,50.954849 301.315430,35.559624 301.315430,19.791142 
	C306.659790,19.791142 312.068359,19.791142 317.818756,19.791142 
	C317.977844,21.645365 318.140228,23.537489 318.368958,26.203014 
	C322.926331,21.190899 328.034973,18.500654 334.856354,18.956776 
z"/>
<path fill="#464646" opacity="1.000000" stroke="none" 
	d="
M388.348511,21.644199 
	C387.562073,21.559925 386.837738,21.075996 386.074524,20.236294 
	C386.827332,20.335196 387.618988,20.789869 388.348511,21.644199 
z"/>
<path fill="#F6F6F6" opacity="1.000000" stroke="none" 
	d="
M262.938416,46.935509 
	C262.891785,46.675285 263.112549,46.348724 263.661530,46.073380 
	C263.728424,46.372787 263.467133,46.620979 262.938416,46.935509 
z"/>
<path fill="#F8F8F8" opacity="1.000000" stroke="none" 
	d="
M365.965698,52.532051 
	C357.807068,54.161434 353.164185,52.551003 351.064911,47.667419 
	C348.800842,42.400478 350.708008,36.414814 355.444061,33.923531 
	C360.589539,31.216883 367.726349,32.911945 370.453339,37.488403 
	C373.600647,42.770267 371.966003,48.677731 365.965698,52.532051 
z"/>
<path fill="#F7F7F7" opacity="1.000000" stroke="none" 
	d="
M275.296753,29.232471 
	C277.932404,31.042326 280.180634,32.740242 282.428833,34.438156 
	C282.216980,34.859467 282.005157,35.280781 281.793304,35.702091 
	C275.646057,35.702091 269.498840,35.702091 263.371307,35.702091 
	C264.367554,30.564487 267.448273,28.773695 275.296753,29.232471 
z"/>
</svg>