<svg version="1.1" id="Layer_1" xmlns="http://www.w3.org/2000/svg" xmlns:xlink="http://www.w3.org/1999/xlink" x="0px" y="0px"
	 width="100%" viewBox="0 0 1694 340" enable-background="new 0 0 1694 340" xml:space="preserve">
<path fill="#000000" opacity="1.000000" stroke="none" 
	d="
M1267.000000,341.000000 
	C844.718445,341.000000 422.936920,341.000000 1.077693,341.000000 
	C1.077693,227.732422 1.077693,114.464775 1.077693,1.098566 
	C565.666687,1.098566 1130.333374,1.098566 1694.973389,1.098566 
	C1694.973389,114.396538 1694.973389,227.698273 1694.973389,341.000000 
	C1552.464600,341.000000 1409.982300,341.000000 1267.000000,341.000000 
M271.245667,255.710159 
	C292.887756,279.532959 320.939148,289.765381 352.005737,291.631409 
	C365.288940,292.429291 379.168488,290.711639 392.153107,287.563507 
	C421.467010,280.456268 444.907196,263.972870 462.425629,239.127350 
	C476.190369,219.605469 481.520264,197.621780 480.761749,174.330643 
	C480.208740,157.350922 475.198883,141.172104 466.692108,126.183762 
	C458.917114,112.484787 448.956482,100.704208 436.454712,91.261475 
	C416.342926,76.070831 393.175476,68.781403 368.300720,67.119957 
	C350.736694,65.946823 333.472870,68.472183 316.676636,73.965828 
	C284.412842,84.518539 261.531281,105.983200 245.946381,135.508408 
	C236.497894,153.408371 228.164658,171.894196 218.908707,189.900024 
	C215.252701,197.012131 211.307678,204.308548 206.007690,210.178909 
	C191.357407,226.405777 172.434860,231.822205 151.274002,227.804214 
	C126.535812,223.106979 108.081856,204.007248 108.927963,177.396469 
	C109.481735,159.980026 117.376938,146.618317 132.176697,138.683731 
	C156.072296,125.872581 179.606339,127.320892 201.225693,144.793015 
	C203.524902,146.651169 204.521423,145.968689 205.697861,143.749069 
	C208.080627,139.253418 210.627136,134.844711 213.095154,130.394073 
	C220.732986,116.620514 228.365662,102.844078 236.169312,88.763863 
	C232.677917,86.631981 229.367401,84.588768 226.031860,82.587257 
	C225.045792,81.995567 223.994720,81.510323 222.964005,80.995178 
	C196.099579,67.568657 167.564789,64.673706 138.398041,69.235481 
	C109.907463,73.691490 85.883591,87.299789 67.285934,109.478539 
	C61.433079,116.458397 56.391190,124.406143 52.429428,132.611618 
	C47.385098,143.059265 43.911053,154.153870 42.766796,165.975128 
	C41.433746,179.746826 41.119537,193.465805 44.529888,206.842270 
	C50.530910,230.380112 63.587921,249.468292 82.340034,264.990906 
	C104.363312,283.221375 130.066803,290.663757 157.940933,291.917236 
	C173.492493,292.616547 188.797592,290.573303 203.794983,286.068024 
	C219.476044,281.357483 233.184479,273.346558 245.664383,262.890289 
	C259.073669,251.655334 266.631592,236.376740 274.780273,221.505127 
	C285.597290,201.763748 295.866425,181.709518 307.170868,162.254501 
	C311.302917,155.143250 316.790375,148.132233 323.277771,143.207199 
	C341.921295,129.053604 362.846313,126.647102 384.239960,136.260452 
	C407.850861,146.870117 420.819702,172.948883 409.849579,197.101440 
	C400.020874,218.740952 381.717773,228.611084 358.803741,229.811951 
	C345.782837,230.494354 333.352753,226.593140 322.640747,218.958633 
	C314.776550,213.353790 307.572418,206.822845 299.666473,200.371994 
	C290.167084,218.078873 280.562225,235.982315 270.506348,254.094955 
	C270.656860,254.434891 270.807343,254.774811 271.245667,255.710159 
M1532.684082,282.126343 
	C1547.069214,278.961578 1558.374390,270.736816 1567.944092,259.660645 
	C1568.291016,259.894806 1568.637939,260.128967 1568.984863,260.363129 
	C1568.984863,266.410370 1568.984863,272.457611 1568.984863,278.606567 
	C1593.950073,278.606567 1618.318359,278.606567 1642.682983,278.606567 
	C1642.682983,211.964401 1642.682983,145.716156 1642.682983,79.419785 
	C1617.994629,79.419785 1593.625488,79.419785 1568.624512,79.419785 
	C1568.624512,85.169998 1568.624512,90.501076 1568.624512,96.292053 
	C1564.259888,92.842186 1560.722900,89.604691 1556.770508,86.996651 
	C1536.310059,73.495453 1513.637817,70.723320 1489.925781,73.945412 
	C1464.723511,77.369980 1443.932251,88.929535 1427.822876,108.681976 
	C1405.308228,136.287918 1398.757812,168.031509 1405.417480,202.347977 
	C1409.970825,225.810852 1421.549683,245.786896 1440.005859,261.619568 
	C1458.246216,277.267059 1479.458374,285.088623 1503.112671,285.764160 
	C1512.688843,286.037659 1522.339966,283.689484 1532.684082,282.126343 
M1117.483521,221.986771 
	C1109.714111,213.568726 1107.340820,203.395218 1107.037598,191.814087 
	C1158.402832,191.814087 1208.984253,191.814087 1259.869873,191.814087 
	C1260.501709,173.097290 1258.717529,155.260925 1252.513062,137.921631 
	C1244.031982,114.219284 1228.772217,96.526817 1206.359253,85.153351 
	C1193.964111,78.863434 1180.798706,75.164917 1166.861328,73.899231 
	C1148.477295,72.229736 1130.158813,71.923126 1112.178955,76.490341 
	C1090.721069,81.941025 1071.853638,91.952888 1057.207275,109.178886 
	C1048.762085,119.111557 1042.918945,130.242584 1038.911499,142.566086 
	C1034.221191,156.989105 1033.526001,171.728836 1033.902832,186.734970 
	C1034.285645,201.983047 1037.692749,216.455353 1044.552124,229.888947 
	C1057.214233,254.686401 1077.981445,270.433167 1104.026489,278.732208 
	C1127.003174,286.053528 1150.690308,288.044464 1174.769531,284.092346 
	C1201.401855,279.721130 1225.034546,269.997345 1242.271973,248.188614 
	C1249.461304,239.092743 1254.291016,228.820908 1257.155029,217.011108 
	C1233.782227,217.011108 1210.971558,216.968842 1188.162109,217.117981 
	C1186.818359,217.126770 1185.037231,218.371338 1184.220337,219.562561 
	C1179.645874,226.233154 1173.560303,230.839386 1165.811401,232.880875 
	C1158.483154,234.811569 1151.105835,235.473526 1143.385376,234.164566 
	C1133.729858,232.527527 1124.792603,230.028946 1117.483521,221.986771 
M696.000000,151.500000 
	C696.000000,127.420120 696.000000,103.340248 696.000000,79.344666 
	C671.913391,79.344666 648.661499,79.344666 625.000000,79.344666 
	C625.000000,81.654968 625.000000,83.624283 625.000000,85.593605 
	C625.000000,118.593163 625.048279,151.592850 624.954468,184.592148 
	C624.937988,190.364441 624.819397,196.218933 623.860229,201.885208 
	C622.664795,208.947739 619.706726,215.098389 613.298401,219.482330 
	C605.211975,225.014267 596.232666,226.126801 587.252075,224.705750 
	C577.896118,223.225311 569.535583,218.599564 566.148499,208.928864 
	C564.015015,202.837646 562.249817,196.249786 562.180359,189.864471 
	C561.801453,155.035736 562.000000,120.200706 562.000000,85.367844 
	C562.000000,83.418762 562.000000,81.469673 562.000000,79.391556 
	C538.055542,79.391556 514.686340,79.391556 491.000000,79.391556 
	C491.000000,81.760422 491.000000,83.743340 491.000000,85.726250 
	C491.000000,117.392494 490.716064,149.062515 491.137207,180.723145 
	C491.310089,193.719589 491.957764,206.883072 494.241760,219.638885 
	C497.997528,240.614075 508.664764,257.931030 526.729126,269.843109 
	C543.988159,281.224060 563.687073,284.868805 583.887024,285.873413 
	C592.458191,286.299683 601.104858,285.455841 609.705750,284.981232 
	C626.657043,284.045929 642.731750,279.918427 657.433655,271.191498 
	C670.592590,263.380493 680.286743,252.288849 686.664856,238.520844 
	C693.766602,223.190842 695.949707,206.760269 695.993530,189.999481 
	C696.026184,177.499725 696.000000,164.999832 696.000000,151.500000 
M991.797607,130.894806 
	C993.075867,130.195572 994.741272,129.791473 995.548157,128.732895 
	C997.023499,126.797546 998.002930,124.481544 999.168274,122.313057 
	C1005.747009,110.071312 1012.319641,97.826271 1018.909668,85.553734 
	C1002.550232,78.124954 985.735291,74.130600 968.528625,73.225914 
	C946.771423,72.081985 924.918396,72.014809 904.203918,80.983627 
	C891.376343,86.537613 880.379333,94.248116 871.842285,105.423897 
	C861.650330,118.765938 858.816528,134.123993 860.136597,150.273911 
	C861.268982,164.127274 866.084290,176.427475 878.244568,184.864105 
	C887.049622,190.972931 896.786987,194.536545 907.061890,197.012878 
	C918.029053,199.656082 929.064453,202.074112 939.898682,205.186905 
	C945.260742,206.727493 949.627686,210.417526 950.853394,216.272949 
	C951.778931,220.694626 949.611816,224.444199 946.238098,227.152847 
	C939.854248,232.278290 932.175049,233.898514 924.369141,232.812805 
	C907.994263,230.535309 892.541870,225.231857 878.283813,216.696838 
	C875.938782,215.293076 873.533508,213.990005 870.851379,212.467499 
	C861.731812,229.546707 852.889709,246.106216 843.882751,262.974335 
	C849.600464,265.838501 854.638977,268.552704 859.831238,270.931244 
	C885.765991,282.811707 912.812683,287.874023 941.404053,285.139374 
	C957.814514,283.569763 973.416931,279.916168 987.920105,272.010284 
	C1002.218811,264.215881 1013.388367,253.514252 1019.500427,238.055511 
	C1023.798462,227.184723 1024.977661,216.039734 1024.114990,204.382751 
	C1022.969971,188.909683 1016.468628,176.394485 1004.297852,167.228409 
	C991.425903,157.534332 976.110291,153.800903 960.495605,150.840759 
	C952.868958,149.394928 945.224060,147.045410 938.178162,143.816162 
	C931.123291,140.582855 930.095886,131.769897 936.852722,126.992775 
	C940.562988,124.369576 945.500183,122.580803 950.036011,122.193054 
	C964.427490,120.962814 978.145020,124.144287 991.797607,130.894806 
M716.651001,79.000130 
	C714.890137,79.000130 713.129333,79.000130 711.269775,79.000130 
	C711.269775,145.962845 711.269775,212.199860 711.269775,278.632812 
	C735.571533,278.632812 759.602295,278.632812 784.000000,278.632812 
	C784.000000,276.464264 784.000000,274.654297 784.000000,272.844330 
	C784.000000,249.184860 783.826172,225.523453 784.092163,201.866974 
	C784.188232,193.317734 784.637329,184.653137 786.158997,176.264969 
	C789.004639,160.578064 796.497864,148.063553 812.478943,142.161469 
	C823.631836,138.042526 835.054077,138.808136 846.684875,139.426788 
	C847.804749,125.218559 850.894165,111.289726 860.203491,100.136238 
	C866.567261,92.511955 864.584534,84.571579 864.870728,76.142746 
	C832.866821,75.078728 803.953613,79.987938 785.067261,109.693878 
	C784.724426,109.341713 784.381653,108.989555 784.038818,108.637390 
	C784.038818,98.936157 784.038818,89.234924 784.038818,79.000023 
	C761.505981,79.000023 739.561646,79.000023 716.651001,79.000130 
M1313.500000,79.000000 
	C1299.089722,79.000000 1284.679443,79.000000 1270.305420,79.000000 
	C1270.305420,146.049332 1270.305420,212.279053 1270.305420,278.601440 
	C1294.974365,278.601440 1319.335815,278.601440 1344.000000,278.601440 
	C1344.000000,276.224091 1344.000000,274.240356 1344.000000,272.256653 
	C1344.000000,245.935532 1343.875000,219.613388 1344.094238,193.294083 
	C1344.144653,187.250320 1344.934082,181.124741 1346.156250,175.196106 
	C1349.164429,160.603409 1356.070068,148.322144 1370.737915,142.980515 
	C1378.768799,140.055893 1387.608398,139.351578 1396.944092,137.472809 
	C1401.188110,124.635529 1407.849365,111.285965 1418.242188,100.720886 
	C1425.650024,93.190331 1425.549683,85.277138 1424.542603,76.119217 
	C1392.867554,75.156937 1363.863770,79.860107 1344.911011,109.446953 
	C1344.593506,109.155815 1344.276123,108.864685 1343.958740,108.573547 
	C1343.958740,98.865524 1343.958740,89.157501 1343.958740,79.000000 
	C1333.749756,79.000000 1324.124878,79.000000 1313.500000,79.000000 
z"/>
<path fill="#0068B0" opacity="1.000000" stroke="none" 
	d="
M270.957397,253.885757 
	C280.562225,235.982315 290.167084,218.078873 299.666473,200.371994 
	C307.572418,206.822845 314.776550,213.353790 322.640747,218.958633 
	C333.352753,226.593140 345.782837,230.494354 358.803741,229.811951 
	C381.717773,228.611084 400.020874,218.740952 409.849579,197.101440 
	C420.819702,172.948883 407.850861,146.870117 384.239960,136.260452 
	C362.846313,126.647102 341.921295,129.053604 323.277771,143.207199 
	C316.790375,148.132233 311.302917,155.143250 307.170868,162.254501 
	C295.866425,181.709518 285.597290,201.763748 274.780273,221.505127 
	C266.631592,236.376740 259.073669,251.655334 245.664383,262.890289 
	C233.184479,273.346558 219.476044,281.357483 203.794983,286.068024 
	C188.797592,290.573303 173.492493,292.616547 157.940933,291.917236 
	C130.066803,290.663757 104.363312,283.221375 82.340034,264.990906 
	C63.587921,249.468292 50.530910,230.380112 44.529888,206.842270 
	C41.119537,193.465805 41.433746,179.746826 42.766796,165.975128 
	C43.911053,154.153870 47.385098,143.059265 52.429428,132.611618 
	C56.391190,124.406143 61.433079,116.458397 67.285934,109.478539 
	C85.883591,87.299789 109.907463,73.691490 138.398041,69.235481 
	C167.564789,64.673706 196.099579,67.568657 222.964005,80.995178 
	C223.994720,81.510323 225.045792,81.995567 226.031860,82.587257 
	C229.367401,84.588768 232.677917,86.631981 236.169312,88.763863 
	C228.365662,102.844078 220.732986,116.620514 213.095154,130.394073 
	C210.627136,134.844711 208.080627,139.253418 205.697861,143.749069 
	C204.521423,145.968689 203.524902,146.651169 201.225693,144.793015 
	C179.606339,127.320892 156.072296,125.872581 132.176697,138.683731 
	C117.376938,146.618317 109.481735,159.980026 108.927963,177.396469 
	C108.081856,204.007248 126.535812,223.106979 151.274002,227.804214 
	C172.434860,231.822205 191.357407,226.405777 206.007690,210.178909 
	C211.307678,204.308548 215.252701,197.012131 218.908707,189.900024 
	C228.164658,171.894196 236.497894,153.408371 245.946381,135.508408 
	C261.531281,105.983200 284.412842,84.518539 316.676636,73.965828 
	C333.472870,68.472183 350.736694,65.946823 368.300720,67.119957 
	C393.175476,68.781403 416.342926,76.070831 436.454712,91.261475 
	C448.956482,100.704208 458.917114,112.484787 466.692108,126.183762 
	C475.198883,141.172104 480.208740,157.350922 480.761749,174.330643 
	C481.520264,197.621780 476.190369,219.605469 462.425629,239.127350 
	C444.907196,263.972870 421.467010,280.456268 392.153107,287.563507 
	C379.168488,290.711639 365.288940,292.429291 352.005737,291.631409 
	C320.939148,289.765381 292.887756,279.532959 271.104431,255.105194 
	C270.961212,254.295380 270.959290,254.090561 270.957397,253.885757 
z"/>
<path fill="#0068B0" opacity="1.000000" stroke="none" 
	d="
M1532.320557,282.330322 
	C1522.339966,283.689484 1512.688843,286.037659 1503.112671,285.764160 
	C1479.458374,285.088623 1458.246216,277.267059 1440.005859,261.619568 
	C1421.549683,245.786896 1409.970825,225.810852 1405.417480,202.347977 
	C1398.757812,168.031509 1405.308228,136.287918 1427.822876,108.681976 
	C1443.932251,88.929535 1464.723511,77.369980 1489.925781,73.945412 
	C1513.637817,70.723320 1536.310059,73.495453 1556.770508,86.996651 
	C1560.722900,89.604691 1564.259888,92.842186 1568.624512,96.292053 
	C1568.624512,90.501076 1568.624512,85.169998 1568.624512,79.419785 
	C1593.625488,79.419785 1617.994629,79.419785 1642.682983,79.419785 
	C1642.682983,145.716156 1642.682983,211.964401 1642.682983,278.606567 
	C1618.318359,278.606567 1593.950073,278.606567 1568.984863,278.606567 
	C1568.984863,272.457611 1568.984863,266.410370 1568.984863,260.363129 
	C1568.637939,260.128967 1568.291016,259.894806 1567.944092,259.660645 
	C1558.374390,270.736816 1547.069214,278.961578 1532.320557,282.330322 
M1506.470703,220.117798 
	C1515.668579,224.120575 1525.512207,224.295486 1534.934937,222.714325 
	C1558.007202,218.842728 1571.215820,200.219940 1571.292969,179.084457 
	C1571.363770,159.702759 1556.833740,140.468369 1537.814453,136.268372 
	C1516.280518,131.513123 1492.268555,140.053360 1483.165161,160.236969 
	C1473.151978,182.437469 1482.477783,211.538834 1506.470703,220.117798 
z"/>
<path fill="#0068B0" opacity="1.000000" stroke="none" 
	d="
M1117.739380,222.240173 
	C1124.792603,230.028946 1133.729858,232.527527 1143.385376,234.164566 
	C1151.105835,235.473526 1158.483154,234.811569 1165.811401,232.880875 
	C1173.560303,230.839386 1179.645874,226.233154 1184.220337,219.562561 
	C1185.037231,218.371338 1186.818359,217.126770 1188.162109,217.117981 
	C1210.971558,216.968842 1233.782227,217.011108 1257.155029,217.011108 
	C1254.291016,228.820908 1249.461304,239.092743 1242.271973,248.188614 
	C1225.034546,269.997345 1201.401855,279.721130 1174.769531,284.092346 
	C1150.690308,288.044464 1127.003174,286.053528 1104.026489,278.732208 
	C1077.981445,270.433167 1057.214233,254.686401 1044.552124,229.888947 
	C1037.692749,216.455353 1034.285645,201.983047 1033.902832,186.734970 
	C1033.526001,171.728836 1034.221191,156.989105 1038.911499,142.566086 
	C1042.918945,130.242584 1048.762085,119.111557 1057.207275,109.178886 
	C1071.853638,91.952888 1090.721069,81.941025 1112.178955,76.490341 
	C1130.158813,71.923126 1148.477295,72.229736 1166.861328,73.899231 
	C1180.798706,75.164917 1193.964111,78.863434 1206.359253,85.153351 
	C1228.772217,96.526817 1244.031982,114.219284 1252.513062,137.921631 
	C1258.717529,155.260925 1260.501709,173.097290 1259.869873,191.814087 
	C1208.984253,191.814087 1158.402832,191.814087 1107.037598,191.814087 
	C1107.340820,203.395218 1109.714111,213.568726 1117.739380,222.240173 
M1137.500000,150.000000 
	C1155.235229,150.000000 1172.970459,150.000000 1190.771362,150.000000 
	C1188.752319,132.820740 1167.831787,115.667358 1141.593994,120.000351 
	C1122.530884,123.148491 1108.753906,139.289276 1109.632690,150.000000 
	C1118.567139,150.000000 1127.533569,150.000000 1137.500000,150.000000 
z"/>
<path fill="#0068B0" opacity="1.000000" stroke="none" 
	d="
M696.000000,152.000000 
	C696.000000,164.999832 696.026184,177.499725 695.993530,189.999481 
	C695.949707,206.760269 693.766602,223.190842 686.664856,238.520844 
	C680.286743,252.288849 670.592590,263.380493 657.433655,271.191498 
	C642.731750,279.918427 626.657043,284.045929 609.705750,284.981232 
	C601.104858,285.455841 592.458191,286.299683 583.887024,285.873413 
	C563.687073,284.868805 543.988159,281.224060 526.729126,269.843109 
	C508.664764,257.931030 497.997528,240.614075 494.241760,219.638885 
	C491.957764,206.883072 491.310089,193.719589 491.137207,180.723145 
	C490.716064,149.062515 491.000000,117.392494 491.000000,85.726250 
	C491.000000,83.743340 491.000000,81.760422 491.000000,79.391556 
	C514.686340,79.391556 538.055542,79.391556 562.000000,79.391556 
	C562.000000,81.469673 562.000000,83.418762 562.000000,85.367844 
	C562.000000,120.200706 561.801453,155.035736 562.180359,189.864471 
	C562.249817,196.249786 564.015015,202.837646 566.148499,208.928864 
	C569.535583,218.599564 577.896118,223.225311 587.252075,224.705750 
	C596.232666,226.126801 605.211975,225.014267 613.298401,219.482330 
	C619.706726,215.098389 622.664795,208.947739 623.860229,201.885208 
	C624.819397,196.218933 624.937988,190.364441 624.954468,184.592148 
	C625.048279,151.592850 625.000000,118.593163 625.000000,85.593605 
	C625.000000,83.624283 625.000000,81.654968 625.000000,79.344666 
	C648.661499,79.344666 671.913391,79.344666 696.000000,79.344666 
	C696.000000,103.340248 696.000000,127.420120 696.000000,152.000000 
z"/>
<path fill="#0068B0" opacity="1.000000" stroke="none" 
	d="
M991.445190,130.729340 
	C978.145020,124.144287 964.427490,120.962814 950.036011,122.193054 
	C945.500183,122.580803 940.562988,124.369576 936.852722,126.992775 
	C930.095886,131.769897 931.123291,140.582855 938.178162,143.816162 
	C945.224060,147.045410 952.868958,149.394928 960.495605,150.840759 
	C976.110291,153.800903 991.425903,157.534332 1004.297852,167.228409 
	C1016.468628,176.394485 1022.969971,188.909683 1024.114990,204.382751 
	C1024.977661,216.039734 1023.798462,227.184723 1019.500427,238.055511 
	C1013.388367,253.514252 1002.218811,264.215881 987.920105,272.010284 
	C973.416931,279.916168 957.814514,283.569763 941.404053,285.139374 
	C912.812683,287.874023 885.765991,282.811707 859.831238,270.931244 
	C854.638977,268.552704 849.600464,265.838501 843.882751,262.974335 
	C852.889709,246.106216 861.731812,229.546707 870.851379,212.467499 
	C873.533508,213.990005 875.938782,215.293076 878.283813,216.696838 
	C892.541870,225.231857 907.994263,230.535309 924.369141,232.812805 
	C932.175049,233.898514 939.854248,232.278290 946.238098,227.152847 
	C949.611816,224.444199 951.778931,220.694626 950.853394,216.272949 
	C949.627686,210.417526 945.260742,206.727493 939.898682,205.186905 
	C929.064453,202.074112 918.029053,199.656082 907.061890,197.012878 
	C896.786987,194.536545 887.049622,190.972931 878.244568,184.864105 
	C866.084290,176.427475 861.268982,164.127274 860.136597,150.273911 
	C858.816528,134.123993 861.650330,118.765938 871.842285,105.423897 
	C880.379333,94.248116 891.376343,86.537613 904.203918,80.983627 
	C924.918396,72.014809 946.771423,72.081985 968.528625,73.225914 
	C985.735291,74.130600 1002.550232,78.124954 1018.909668,85.553734 
	C1012.319641,97.826271 1005.747009,110.071312 999.168274,122.313057 
	C998.002930,124.481544 997.023499,126.797546 995.548157,128.732895 
	C994.741272,129.791473 993.075867,130.195572 991.445190,130.729340 
z"/>
<path fill="#0068B0" opacity="1.000000" stroke="none" 
	d="
M717.134155,79.000076 
	C739.561646,79.000023 761.505981,79.000023 784.038818,79.000023 
	C784.038818,89.234924 784.038818,98.936157 784.038818,108.637390 
	C784.381653,108.989555 784.724426,109.341713 785.067261,109.693878 
	C803.953613,79.987938 832.866821,75.078728 864.870728,76.142746 
	C864.584534,84.571579 866.567261,92.511955 860.203491,100.136238 
	C850.894165,111.289726 847.804749,125.218559 846.684875,139.426788 
	C835.054077,138.808136 823.631836,138.042526 812.478943,142.161469 
	C796.497864,148.063553 789.004639,160.578064 786.158997,176.264969 
	C784.637329,184.653137 784.188232,193.317734 784.092163,201.866974 
	C783.826172,225.523453 784.000000,249.184860 784.000000,272.844330 
	C784.000000,274.654297 784.000000,276.464264 784.000000,278.632812 
	C759.602295,278.632812 735.571533,278.632812 711.269775,278.632812 
	C711.269775,212.199860 711.269775,145.962845 711.269775,79.000130 
	C713.129333,79.000130 714.890137,79.000130 717.134155,79.000076 
z"/>
<path fill="#0068B0" opacity="1.000000" stroke="none" 
	d="
M1314.000000,79.000000 
	C1324.124878,79.000000 1333.749756,79.000000 1343.958740,79.000000 
	C1343.958740,89.157501 1343.958740,98.865524 1343.958740,108.573547 
	C1344.276123,108.864685 1344.593506,109.155815 1344.911011,109.446953 
	C1363.863770,79.860107 1392.867554,75.156937 1424.542603,76.119217 
	C1425.549683,85.277138 1425.650024,93.190331 1418.242188,100.720886 
	C1407.849365,111.285965 1401.188110,124.635529 1396.944092,137.472809 
	C1387.608398,139.351578 1378.768799,140.055893 1370.737915,142.980515 
	C1356.070068,148.322144 1349.164429,160.603409 1346.156250,175.196106 
	C1344.934082,181.124741 1344.144653,187.250320 1344.094238,193.294083 
	C1343.875000,219.613388 1344.000000,245.935532 1344.000000,272.256653 
	C1344.000000,274.240356 1344.000000,276.224091 1344.000000,278.601440 
	C1319.335815,278.601440 1294.974365,278.601440 1270.305420,278.601440 
	C1270.305420,212.279053 1270.305420,146.049332 1270.305420,79.000000 
	C1284.679443,79.000000 1299.089722,79.000000 1314.000000,79.000000 
z"/>
<path fill="#0068B0" opacity="1.000000" stroke="none" 
	d="
M270.731873,253.990356 
	C270.959290,254.090561 270.961212,254.295380 270.960510,254.807480 
	C270.807343,254.774811 270.656860,254.434891 270.731873,253.990356 
z"/>
<path fill="#000000" opacity="1.000000" stroke="none" 
	d="
M1506.086914,220.018738 
	C1482.477783,211.538834 1473.151978,182.437469 1483.165161,160.236969 
	C1492.268555,140.053360 1516.280518,131.513123 1537.814453,136.268372 
	C1556.833740,140.468369 1571.363770,159.702759 1571.292969,179.084457 
	C1571.215820,200.219940 1558.007202,218.842728 1534.934937,222.714325 
	C1525.512207,224.295486 1515.668579,224.120575 1506.086914,220.018738 
z"/>
<path fill="#000000" opacity="1.000000" stroke="none" 
	d="
M1137.000000,150.000000 
	C1127.533569,150.000000 1118.567139,150.000000 1109.632690,150.000000 
	C1108.753906,139.289276 1122.530884,123.148491 1141.593994,120.000351 
	C1167.831787,115.667358 1188.752319,132.820740 1190.771362,150.000000 
	C1172.970459,150.000000 1155.235229,150.000000 1137.000000,150.000000 
z"/>
</svg>