<svg version="1.1" id="Layer_1" xmlns="http://www.w3.org/2000/svg" xmlns:xlink="http://www.w3.org/1999/xlink" x="0px" y="0px"
	 width="100%" viewBox="0 0 400 225" enable-background="new 0 0 400 225" xml:space="preserve">
<path fill="#1A1A1A" opacity="1.000000" stroke="none" 
	d="
M182.000000,226.000000 
	C181.555557,226.000000 181.111099,226.000000 180.374390,225.602737 
	C183.430130,209.805588 186.778137,194.405685 190.273941,178.325974 
	C187.980270,178.325974 186.213181,178.325974 184.446091,178.325958 
	C125.619614,178.325424 66.793137,178.328598 7.966661,178.310669 
	C5.644409,178.309967 3.322219,178.108124 1.000000,178.000000 
	C1.000000,177.250000 1.000000,176.500000 1.348667,175.213867 
	C9.135783,139.398010 16.610340,104.125839 23.999672,68.835815 
	C28.731506,46.237499 33.337563,23.612846 38.000000,1.000000 
	C113.020897,1.000000 188.041794,1.000000 263.656128,1.408270 
	C261.839111,13.697873 259.428650,25.579205 256.908752,38.000000 
	C305.145630,38.000000 353.072815,38.000000 401.000000,38.000000 
	C401.000000,39.388889 401.000000,40.777779 400.632111,42.700455 
	C399.916565,44.339783 399.474823,45.425312 399.234863,46.553757 
	C390.486694,87.695526 381.787598,128.847763 373.011475,169.983551 
	C369.095001,188.340775 365.028900,206.666046 360.560059,225.005371 
	C302.789825,225.004501 245.490234,224.993713 188.190704,225.045654 
	C186.126862,225.047531 184.063553,225.667892 182.000000,226.000000 
M122.433441,111.145370 
	C122.882393,105.547676 123.981773,99.912170 123.659019,94.359329 
	C122.668846,77.323685 112.649284,64.524879 97.494820,61.381790 
	C81.361290,58.035648 66.932716,62.179199 55.743244,74.453819 
	C42.392502,89.099312 38.956039,106.966621 41.647850,126.054634 
	C43.216667,137.179337 49.304283,145.722961 59.301895,151.252289 
	C59.975517,151.624832 60.469738,152.321762 61.132206,153.598694 
	C63.538532,154.995255 65.919655,156.441879 68.400352,157.690704 
	C68.592957,157.787659 69.483833,156.497559 70.783119,155.960236 
	C71.514565,155.924210 72.246010,155.888199 73.262138,156.335068 
	C73.846260,156.188873 74.430382,156.042694 75.894333,155.733261 
	C78.566788,155.749283 81.239243,155.765305 84.378395,156.381790 
	C86.917503,155.669525 89.456619,154.957260 92.680061,153.933090 
	C104.620064,150.258469 113.852722,143.687561 117.946899,130.604233 
	C112.999603,130.604233 108.692078,130.485245 104.399506,130.686020 
	C103.294998,130.737686 101.866333,131.528976 101.215645,132.433197 
	C94.340538,141.987000 84.512764,143.342438 74.070244,141.707886 
	C61.508297,139.741562 52.900105,124.266609 57.243656,112.267029 
	C57.510815,112.109848 57.777973,111.952675 58.935684,111.496460 
	C64.066086,111.480217 69.196724,111.424042 74.326836,111.455193 
	C89.868263,111.549545 105.409500,111.677727 121.156944,112.133400 
	C121.411896,112.000381 121.666840,111.867371 122.433441,111.145370 
M211.525330,202.091293 
	C211.356186,202.625641 211.187027,203.159973 211.017868,203.694321 
	C212.345688,203.124496 213.673508,202.554657 215.914597,201.758255 
	C223.578751,201.753754 231.250702,201.543564 238.903702,201.833466 
	C242.605942,201.973709 245.036850,200.825439 247.391220,197.972672 
	C258.625702,184.359879 270.076111,170.925293 281.440887,157.419922 
	C285.546112,152.541458 286.263153,152.628540 288.982513,158.580933 
	C293.336517,168.111557 297.607819,177.680222 302.006134,187.190216 
	C304.222809,191.983078 305.498871,198.399399 309.298859,200.928787 
	C312.914612,203.335556 319.261871,201.682907 324.408936,201.732941 
	C329.944763,201.786774 335.481506,201.745087 341.546204,201.745087 
	C340.845551,200.065399 340.553955,199.312256 340.221588,198.577515 
	C330.626953,177.364899 321.089325,156.126022 311.360931,134.974884 
	C309.979370,131.971146 310.239105,130.103226 312.463440,127.579117 
	C328.647858,109.213730 344.646667,90.684700 360.691772,72.196663 
	C363.364166,69.117378 365.976166,65.985710 369.246796,62.135784 
	C359.153442,62.135784 350.056183,62.288620 340.968628,62.058468 
	C337.469574,61.969852 335.144043,62.997787 332.948700,65.786354 
	C323.062500,78.343987 312.968750,90.738525 302.911224,103.160614 
	C301.637207,104.734146 300.135712,106.123497 298.202606,108.165421 
	C296.949707,105.328796 296.074280,103.401886 295.243164,101.456039 
	C290.147949,89.527267 285.103394,77.576492 279.917816,65.687180 
	C279.335052,64.351044 277.996552,62.375660 276.969727,62.351612 
	C266.442719,62.105049 255.907730,62.200531 244.887726,62.200531 
	C245.802231,64.412903 246.397598,65.943260 247.060684,67.443703 
	C255.328049,86.151535 263.549042,104.880295 271.938019,123.533508 
	C273.259216,126.471237 273.140137,128.430481 270.934143,131.017761 
	C252.029282,153.190353 233.292908,175.506714 214.551361,197.818054 
	C213.547501,199.013123 212.949188,200.548874 211.525330,202.091293 
M217.131210,109.734863 
	C223.106720,81.698112 229.082230,53.661362 235.100861,25.422293 
	C229.713409,25.422293 225.077271,25.422293 220.153702,25.422293 
	C216.332001,43.291191 212.531052,61.063084 208.514786,79.841728 
	C207.522873,78.388809 207.092026,77.942749 206.873077,77.409660 
	C202.642181,67.108383 194.525101,61.836449 183.882339,60.692730 
	C166.869217,58.864414 153.443527,65.945953 144.054016,79.669228 
	C132.137848,97.085335 127.979691,116.267365 136.152756,136.486740 
	C141.465439,149.629791 152.960526,156.101334 166.298340,156.390854 
	C175.911606,156.599533 185.233459,152.075287 192.181961,144.499069 
	C193.134384,143.460587 193.460648,141.847794 194.076828,140.500916 
	C194.703033,141.021088 195.329239,141.541260 195.955460,142.061432 
	C195.225098,145.903183 194.494751,149.744934 193.721832,153.810547 
	C198.579208,153.810547 203.154892,153.810547 207.807816,153.810547 
	C210.911285,139.206726 213.954391,124.886948 217.131210,109.734863 
M63.421967,158.190857 
	C63.796379,158.195435 64.170792,158.200012 64.545204,158.204605 
	C64.546860,158.049301 64.559151,157.759033 64.548615,157.758209 
	C64.176041,157.728851 63.801327,157.726624 63.421967,158.190857 
M60.810310,158.423035 
	C60.805817,158.796402 60.801327,159.169785 60.796833,159.543152 
	C60.951729,159.544907 61.241245,159.557251 61.242058,159.546906 
	C61.271221,159.175369 61.273438,158.801727 60.810310,158.423035 
z"/>
<path fill="#FDFDFD" opacity="1.000000" stroke="none" 
	d="
M1.000000,178.468658 
	C3.322219,178.108124 5.644409,178.309967 7.966661,178.310669 
	C66.793137,178.328598 125.619614,178.325424 184.446091,178.325958 
	C186.213181,178.325974 187.980270,178.325974 190.273941,178.325974 
	C186.778137,194.405685 183.430130,209.805588 180.041061,225.602737 
	C120.448532,226.000000 60.897064,226.000000 1.000000,226.000000 
	C1.000000,210.314133 1.000000,194.625717 1.000000,178.468658 
z"/>
<path fill="#FEFEFE" opacity="1.000000" stroke="none" 
	d="
M401.000000,37.531342 
	C353.072815,38.000000 305.145630,38.000000 256.908752,38.000000 
	C259.428650,25.579205 261.839111,13.697873 264.124817,1.408270 
	C309.551575,1.000000 355.103119,1.000000 401.000000,1.000000 
	C401.000000,13.018690 401.000000,25.040688 401.000000,37.531342 
z"/>
<path fill="#FDFDFD" opacity="1.000000" stroke="none" 
	d="
M361.030701,225.005829 
	C365.028900,206.666046 369.095001,188.340775 373.011475,169.983551 
	C381.787598,128.847763 390.486694,87.695526 399.234863,46.553757 
	C399.474823,45.425312 399.916565,44.339783 400.632111,43.117119 
	C401.000000,103.880104 401.000000,164.760208 401.000000,226.000000 
	C387.981323,226.000000 374.959320,226.000000 361.532501,225.753189 
	C361.095367,225.339523 361.063019,225.172684 361.030701,225.005829 
z"/>
<path fill="#FDFDFD" opacity="1.000000" stroke="none" 
	d="
M37.531342,1.000000 
	C33.337563,23.612846 28.731506,46.237499 23.999672,68.835815 
	C16.610340,104.125839 9.135783,139.398010 1.348667,174.838867 
	C1.000000,117.120483 1.000000,59.240971 1.000000,1.000000 
	C13.018479,1.000000 25.040581,1.000000 37.531342,1.000000 
z"/>
<path fill="#353535" opacity="1.000000" stroke="none" 
	d="
M360.560059,225.005371 
	C361.063019,225.172684 361.095367,225.339523 361.063843,225.753189 
	C301.645782,226.000000 242.291550,226.000000 182.468658,226.000000 
	C184.063553,225.667892 186.126862,225.047531 188.190704,225.045654 
	C245.490234,224.993713 302.789825,225.004501 360.560059,225.005371 
z"/>
<path fill="#FBFBFB" opacity="1.000000" stroke="none" 
	d="
M212.162079,201.926056 
	C212.949188,200.548874 213.547501,199.013123 214.551361,197.818054 
	C233.292908,175.506714 252.029282,153.190353 270.934143,131.017761 
	C273.140137,128.430481 273.259216,126.471237 271.938019,123.533508 
	C263.549042,104.880295 255.328049,86.151535 247.060684,67.443703 
	C246.397598,65.943260 245.802231,64.412903 244.887726,62.200531 
	C255.907730,62.200531 266.442719,62.105049 276.969727,62.351612 
	C277.996552,62.375660 279.335052,64.351044 279.917816,65.687180 
	C285.103394,77.576492 290.147949,89.527267 295.243164,101.456039 
	C296.074280,103.401886 296.949707,105.328796 298.202606,108.165421 
	C300.135712,106.123497 301.637207,104.734146 302.911224,103.160614 
	C312.968750,90.738525 323.062500,78.343987 332.948700,65.786354 
	C335.144043,62.997787 337.469574,61.969852 340.968628,62.058468 
	C350.056183,62.288620 359.153442,62.135784 369.246796,62.135784 
	C365.976166,65.985710 363.364166,69.117378 360.691772,72.196663 
	C344.646667,90.684700 328.647858,109.213730 312.463440,127.579117 
	C310.239105,130.103226 309.979370,131.971146 311.360931,134.974884 
	C321.089325,156.126022 330.626953,177.364899 340.221588,198.577515 
	C340.553955,199.312256 340.845551,200.065399 341.546204,201.745087 
	C335.481506,201.745087 329.944763,201.786774 324.408936,201.732941 
	C319.261871,201.682907 312.914612,203.335556 309.298859,200.928787 
	C305.498871,198.399399 304.222809,191.983078 302.006134,187.190216 
	C297.607819,177.680222 293.336517,168.111557 288.982513,158.580933 
	C286.263153,152.628540 285.546112,152.541458 281.440887,157.419922 
	C270.076111,170.925293 258.625702,184.359879 247.391220,197.972672 
	C245.036850,200.825439 242.605942,201.973709 238.903702,201.833466 
	C231.250702,201.543564 223.578751,201.753754 215.109787,201.787170 
	C213.590683,201.852722 212.876373,201.889389 212.162079,201.926056 
z"/>
<path fill="#F9F9F9" opacity="1.000000" stroke="none" 
	d="
M217.064362,110.151016 
	C213.954391,124.886948 210.911285,139.206726 207.807816,153.810547 
	C203.154892,153.810547 198.579208,153.810547 193.721832,153.810547 
	C194.494751,149.744934 195.225098,145.903183 195.955460,142.061432 
	C195.329239,141.541260 194.703033,141.021088 194.076828,140.500916 
	C193.460648,141.847794 193.134384,143.460587 192.181961,144.499069 
	C185.233459,152.075287 175.911606,156.599533 166.298340,156.390854 
	C152.960526,156.101334 141.465439,149.629791 136.152756,136.486740 
	C127.979691,116.267365 132.137848,97.085335 144.054016,79.669228 
	C153.443527,65.945953 166.869217,58.864414 183.882339,60.692730 
	C194.525101,61.836449 202.642181,67.108383 206.873077,77.409660 
	C207.092026,77.942749 207.522873,78.388809 208.514786,79.841728 
	C212.531052,61.063084 216.332001,43.291191 220.153702,25.422293 
	C225.077271,25.422293 229.713409,25.422293 235.100861,25.422293 
	C229.082230,53.661362 223.106720,81.698112 217.064362,110.151016 
M157.096878,85.653854 
	C154.155319,92.795921 150.502716,99.747612 148.521606,107.146835 
	C147.195709,112.098869 147.421600,117.839760 148.375610,122.962746 
	C152.052444,142.707092 173.520126,149.244095 189.211731,135.167328 
	C202.125397,123.582611 206.019028,108.352760 203.108490,91.611343 
	C201.042099,79.725403 192.393875,73.429550 180.368607,73.634003 
	C170.899490,73.794991 163.512314,78.008942 157.096878,85.653854 
z"/>
<path fill="#FAFAFA" opacity="1.000000" stroke="none" 
	d="
M56.993095,111.969902 
	C52.900105,124.266609 61.508297,139.741562 74.070244,141.707886 
	C84.512764,143.342438 94.340538,141.987000 101.215645,132.433197 
	C101.866333,131.528976 103.294998,130.737686 104.399506,130.686020 
	C108.692078,130.485245 112.999603,130.604233 117.946899,130.604233 
	C113.852722,143.687561 104.620064,150.258469 91.958130,154.091278 
	C88.794693,154.760086 86.353195,155.270706 83.911697,155.781342 
	C81.239243,155.765305 78.566788,155.749283 75.123520,155.691711 
	C73.894295,155.717499 73.435875,155.784836 72.977455,155.852173 
	C72.246010,155.888199 71.514565,155.924210 70.250626,155.553741 
	C66.827881,154.387451 63.937637,153.627640 61.047394,152.867828 
	C60.469738,152.321762 59.975517,151.624832 59.301895,151.252289 
	C49.304283,145.722961 43.216667,137.179337 41.647850,126.054634 
	C38.956039,106.966621 42.392502,89.099312 55.743244,74.453819 
	C66.932716,62.179199 81.361290,58.035648 97.494820,61.381790 
	C112.649284,64.524879 122.668846,77.323685 123.659019,94.359329 
	C123.981773,99.912170 122.882393,105.547676 121.929436,111.364136 
	C121.267220,111.652840 121.109016,111.722786 120.950806,111.792725 
	C105.409500,111.677727 89.868263,111.549545 74.326836,111.455193 
	C69.196724,111.424042 64.066086,111.480217 58.205685,111.558594 
	C57.314823,111.737122 57.153957,111.853516 56.993095,111.969902 
M63.727982,99.523819 
	C78.343781,99.523819 92.959587,99.523819 108.139587,99.523819 
	C108.139587,97.878922 108.139587,96.457504 108.374352,94.661682 
	C108.273773,94.100555 108.173195,93.539429 108.129021,92.254745 
	C107.873672,91.103470 107.618324,89.952187 107.386757,88.354790 
	C107.386757,88.354790 107.100807,88.011543 107.066895,87.278252 
	C103.021835,71.580643 82.675674,70.642212 72.090958,78.130043 
	C65.179001,83.019691 61.017387,89.849121 58.543518,98.269157 
	C59.061821,98.641602 59.580120,99.014038 60.762352,99.499123 
	C61.205826,99.438789 61.649303,99.378464 62.492828,99.570244 
	C62.492828,99.570244 62.909515,99.346695 63.727982,99.523819 
z"/>
<path fill="#161616" opacity="1.000000" stroke="none" 
	d="
M61.089802,153.233261 
	C63.937637,153.627640 66.827881,154.387451 69.884140,155.499695 
	C69.483833,156.497559 68.592957,157.787659 68.400352,157.690704 
	C65.919655,156.441879 63.538532,154.995255 61.089802,153.233261 
z"/>
<path fill="#161616" opacity="1.000000" stroke="none" 
	d="
M84.145050,156.081573 
	C86.353195,155.270706 88.794693,154.760086 91.615959,154.247223 
	C89.456619,154.957260 86.917503,155.669525 84.145050,156.081573 
z"/>
<path fill="#0D0D0D" opacity="1.000000" stroke="none" 
	d="
M211.843704,202.008667 
	C212.876373,201.889389 213.590683,201.852722 214.653152,201.900452 
	C213.673508,202.554657 212.345688,203.124496 211.017868,203.694321 
	C211.187027,203.159973 211.356186,202.625641 211.843704,202.008667 
z"/>
<path fill="#161616" opacity="1.000000" stroke="none" 
	d="
M63.424438,157.955719 
	C63.801327,157.726624 64.176041,157.728851 64.548615,157.758209 
	C64.559151,157.759033 64.546860,158.049301 64.545204,158.204605 
	C64.170792,158.200012 63.796379,158.195435 63.424438,157.955719 
z"/>
<path fill="#161616" opacity="1.000000" stroke="none" 
	d="
M61.044853,158.425705 
	C61.273438,158.801727 61.271221,159.175369 61.242058,159.546906 
	C61.241245,159.557251 60.951729,159.544907 60.796837,159.543152 
	C60.801327,159.169785 60.805817,158.796402 61.044853,158.425705 
z"/>
<path fill="#161616" opacity="1.000000" stroke="none" 
	d="
M73.119797,156.093628 
	C73.435875,155.784836 73.894295,155.717499 74.683609,155.773346 
	C74.430382,156.042694 73.846260,156.188873 73.119797,156.093628 
z"/>
<path fill="#080808" opacity="1.000000" stroke="none" 
	d="
M57.118378,112.118469 
	C57.153957,111.853516 57.314823,111.737122 57.760406,111.708115 
	C57.777973,111.952675 57.510815,112.109848 57.118378,112.118469 
z"/>
<path fill="#080808" opacity="1.000000" stroke="none" 
	d="
M121.053879,111.963066 
	C121.109016,111.722786 121.267220,111.652840 121.673615,111.658623 
	C121.666840,111.867371 121.411896,112.000381 121.053879,111.963066 
z"/>
<path fill="#1A1A1A" opacity="1.000000" stroke="none" 
	d="
M157.318451,85.371811 
	C163.512314,78.008942 170.899490,73.794991 180.368607,73.634003 
	C192.393875,73.429550 201.042099,79.725403 203.108490,91.611343 
	C206.019028,108.352760 202.125397,123.582611 189.211731,135.167328 
	C173.520126,149.244095 152.052444,142.707092 148.375610,122.962746 
	C147.421600,117.839760 147.195709,112.098869 148.521606,107.146835 
	C150.502716,99.747612 154.155319,92.795921 157.318451,85.371811 
z"/>
<path fill="#1B1B1B" opacity="1.000000" stroke="none" 
	d="
M58.866367,97.966545 
	C61.017387,89.849121 65.179001,83.019691 72.090958,78.130043 
	C82.675674,70.642212 103.021835,71.580643 106.940475,87.747002 
	C106.997025,88.410805 107.180000,88.605858 107.362976,88.800911 
	C107.618324,89.952187 107.873672,91.103470 107.908463,92.786499 
	C107.838463,93.890869 107.989029,94.463478 108.139587,95.036087 
	C108.139587,96.457504 108.139587,97.878922 108.139587,99.523819 
	C92.959587,99.523819 78.343781,99.523819 63.279003,99.250412 
	C62.584274,99.090714 62.338524,99.204422 62.092777,99.318130 
	C61.649303,99.378464 61.205826,99.438789 60.284393,99.159912 
	C59.493080,98.535988 59.179726,98.251266 58.866367,97.966545 
z"/>
<path fill="#3B3B3B" opacity="1.000000" stroke="none" 
	d="
M58.704941,98.117851 
	C59.179726,98.251266 59.493080,98.535988 59.952431,99.103592 
	C59.580120,99.014038 59.061821,98.641602 58.704941,98.117851 
z"/>
<path fill="#3B3B3B" opacity="1.000000" stroke="none" 
	d="
M108.256973,94.848885 
	C107.989029,94.463478 107.838463,93.890869 107.880257,93.148285 
	C108.173195,93.539429 108.273773,94.100555 108.256973,94.848885 
z"/>
<path fill="#3B3B3B" opacity="1.000000" stroke="none" 
	d="
M62.292801,99.444183 
	C62.338524,99.204422 62.584274,99.090714 62.869770,99.161850 
	C62.909515,99.346695 62.492828,99.570244 62.292801,99.444183 
z"/>
<path fill="#3B3B3B" opacity="1.000000" stroke="none" 
	d="
M107.374863,88.577850 
	C107.180000,88.605858 106.997025,88.410805 106.957428,88.113647 
	C107.100807,88.011543 107.386757,88.354790 107.374863,88.577850 
z"/>
</svg>