<svg version="1.1" id="Layer_1" xmlns="http://www.w3.org/2000/svg" xmlns:xlink="http://www.w3.org/1999/xlink" x="0px" y="0px"
	 width="100%" viewBox="0 0 1920 1080" enable-background="new 0 0 1920 1080" xml:space="preserve">
<path fill="#02262B" opacity="1.000000" stroke="none" 
	d="
M1.000000,852.000000 
	C1.000000,848.969604 1.000000,845.939148 1.371951,842.384399 
	C2.164532,841.031433 2.784886,840.245972 2.974941,839.367432 
	C4.901709,830.461670 6.755217,821.540161 8.634931,812.624207 
	C14.754148,783.599243 20.895002,754.578796 26.990763,725.548950 
	C32.608654,698.794800 38.175400,672.029968 43.771378,645.271240 
	C50.182198,614.616211 56.620396,583.966797 63.010128,553.307373 
	C70.176910,518.919495 77.249657,484.511871 84.462723,450.133698 
	C90.553596,421.104034 96.867180,392.121033 102.935753,363.086761 
	C110.156013,328.542419 117.135857,293.947815 124.374382,259.407349 
	C132.123383,222.430908 140.111038,185.504517 147.886169,148.533508 
	C155.865738,110.590553 163.759171,72.629318 171.592377,34.655888 
	C173.899292,23.472544 175.873383,12.220541 178.000000,1.000001 
	C540.358215,1.000000 902.716492,1.000000 1265.486328,1.392500 
	C1261.927856,20.408264 1257.911865,39.021885 1253.998047,57.656994 
	C1247.973755,86.342049 1242.014771,115.040840 1236.038330,143.735962 
	C1233.717163,154.880737 1231.424438,166.031433 1228.948975,178.000000 
	C1460.020996,178.000000 1690.510498,178.000000 1921.000000,178.000000 
	C1921.000000,181.030426 1921.000000,184.060852 1920.633057,187.616776 
	C1919.780640,189.125839 1919.074463,190.060455 1918.843994,191.100494 
	C1916.513672,201.609879 1914.229736,212.129837 1911.993286,222.659637 
	C1905.421509,253.600433 1898.903076,284.552551 1892.314209,315.489655 
	C1886.586304,342.383606 1880.763672,369.257355 1875.032959,396.150726 
	C1868.751587,425.628571 1862.543213,455.122009 1856.274414,484.602539 
	C1850.211060,513.116089 1844.085449,541.616333 1838.033936,570.132324 
	C1831.811279,599.455383 1825.691040,628.800293 1819.441772,658.117676 
	C1812.362793,691.326599 1805.119141,724.500671 1798.077393,757.717468 
	C1790.521484,793.359253 1783.187134,829.047974 1775.624512,864.688354 
	C1769.539062,893.367310 1763.207764,921.994019 1757.075928,950.663208 
	C1749.489746,986.131653 1741.962524,1021.612915 1734.490356,1057.105591 
	C1732.821289,1065.034058 1731.487915,1073.033325 1730.000000,1081.000000 
	C1439.975098,1081.000000 1149.950195,1081.000000 859.463379,1080.578369 
	C859.257385,1078.527100 859.428406,1076.878906 859.781799,1075.270752 
	C865.472656,1049.370605 871.217346,1023.482483 876.888733,997.578125 
	C886.139893,955.323059 895.352417,913.059570 904.565308,870.796143 
	C905.892883,864.705994 907.132324,858.596497 908.516663,852.000000 
	C605.594543,852.000000 303.297272,852.000000 1.000000,852.000000 
M1561.333496,799.153381 
	C1536.129150,743.449768 1511.057983,687.684937 1485.532227,632.129089 
	C1482.711792,625.990356 1483.418091,622.539246 1487.706543,617.611511 
	C1580.237671,511.283051 1672.572754,404.784088 1764.937866,298.311096 
	C1765.929565,297.168060 1766.815552,295.933319 1768.190430,294.181030 
	C1715.134521,294.181030 1663.143311,294.146820 1611.152832,294.321228 
	C1609.305908,294.327423 1606.966919,295.996063 1605.694336,297.567749 
	C1549.303711,367.214508 1493.009399,436.939331 1436.695923,506.648651 
	C1431.278931,513.354187 1425.695068,512.654602 1422.381714,504.897797 
	C1393.015991,436.150360 1363.615723,367.417633 1334.385376,298.612671 
	C1332.882935,295.076233 1331.132935,294.087158 1327.449341,294.096283 
	C1276.953613,294.221375 1226.457520,294.180603 1175.961426,294.180603 
	C1174.373047,294.180603 1172.784790,294.180603 1170.587158,294.180603 
	C1171.637817,296.788849 1172.371704,298.775116 1173.226074,300.708008 
	C1217.822876,401.603149 1262.402710,502.505829 1307.138306,603.339417 
	C1308.879395,607.263916 1308.557251,609.605286 1305.781372,612.887573 
	C1207.883423,728.643005 1110.102051,844.496948 1012.318909,960.349365 
	C1011.538757,961.273743 1010.956970,962.365540 1010.174744,963.541199 
	C1010.975647,963.694580 1011.283142,963.805054 1011.590637,963.805115 
	C1062.419922,963.815002 1113.249390,963.855225 1164.078125,963.680664 
	C1166.119873,963.673645 1168.716431,962.107422 1170.109741,960.465820 
	C1200.401978,924.774719 1230.563232,888.972595 1260.742554,853.185608 
	C1292.962646,814.978699 1325.175049,776.765320 1357.391846,738.555542 
	C1361.947754,733.152283 1372.363647,734.367859 1375.221436,740.636230 
	C1408.440918,813.502808 1441.695557,886.353455 1474.772949,959.284485 
	C1476.446411,962.974548 1478.379761,963.917236 1482.201294,963.906921 
	C1531.530396,963.774597 1580.859985,963.819458 1630.189453,963.819458 
	C1631.793335,963.819458 1633.397339,963.819458 1635.929688,963.819458 
	C1610.974365,908.660950 1586.349243,854.232178 1561.333496,799.153381 
M1054.559204,445.099304 
	C1057.381226,431.758270 1060.191772,418.414825 1063.027222,405.076660 
	C1080.212524,324.236664 1097.406616,243.398529 1114.589844,162.558075 
	C1117.763916,147.625137 1120.901855,132.684479 1124.103149,117.527115 
	C1099.936157,117.527115 1076.185547,117.527115 1052.321533,117.527115 
	C1034.096191,203.420883 1015.922791,289.070282 997.841187,374.286896 
	C992.644836,375.768066 990.740479,373.917328 989.418945,369.562134 
	C987.743469,364.040222 985.333618,358.645660 982.560059,353.567871 
	C963.937134,319.473145 934.529358,299.233917 897.550293,290.144531 
	C851.767578,278.891174 807.868591,286.342804 766.367920,307.615997 
	C720.099670,331.333008 687.444153,368.588440 664.209473,414.442078 
	C641.462585,459.333374 631.421753,507.341370 630.500000,557.446167 
	C629.974609,586.007263 633.338562,613.955139 644.153320,640.607666 
	C664.201538,690.015564 698.316406,725.363586 750.920959,737.729309 
	C820.575745,754.102905 879.626831,733.534851 926.948914,679.796631 
	C929.710693,676.660400 932.066833,673.640686 937.266907,675.673157 
	C933.144409,695.337952 929.001587,715.100037 924.789490,735.192627 
	C947.697510,735.192627 970.123413,735.192627 992.781433,735.192627 
	C993.183960,733.469299 993.628052,731.706177 994.006104,729.928955 
	C1005.179626,677.389771 1016.356628,624.851379 1027.511475,572.308167 
	C1036.455933,530.176331 1045.372070,488.038513 1054.559204,445.099304 
M194.046097,511.571930 
	C193.549561,516.878418 192.941391,522.177246 192.575043,527.492676 
	C190.563049,556.684998 190.274216,585.852600 198.105438,614.337952 
	C214.961166,675.649048 252.744873,717.513000 314.572174,735.105347 
	C366.524475,749.887939 417.830933,745.058716 467.590698,724.864624 
	C504.629150,709.833374 533.609619,685.231323 551.739075,649.046631 
	C555.898560,640.744568 558.860657,631.842529 562.642029,622.558105 
	C537.362488,622.558105 513.536865,622.480652 489.714508,622.722351 
	C488.022583,622.739502 485.788879,624.754028 484.761475,626.426147 
	C472.582916,646.247253 455.838928,660.735352 434.206055,669.181396 
	C410.787659,678.324585 386.268707,680.550110 361.503662,677.805054 
	C328.532776,674.150330 302.378387,658.745911 284.547729,630.211487 
	C271.585388,609.467834 265.963226,586.601196 265.109467,562.433960 
	C264.741028,552.005127 265.047699,541.552429 265.047699,530.607788 
	C372.267975,530.607788 478.344025,530.607788 585.027588,530.607788 
	C586.226257,518.256958 587.456238,506.362640 588.521301,494.453583 
	C591.012512,466.597565 591.071350,438.775208 583.892639,411.550507 
	C568.117249,351.724030 532.110779,310.041992 471.897919,292.439606 
	C424.209137,278.498444 377.110901,283.852203 331.928070,303.581421 
	C276.749390,327.675354 240.363388,370.167816 216.875320,424.662476 
	C205.004150,452.204712 197.810623,480.974426 194.046097,511.571930 
z"/>
<path fill="#000000" opacity="1.000000" stroke="none" 
	d="
M1.000000,852.468628 
	C303.297272,852.000000 605.594543,852.000000 908.516663,852.000000 
	C907.132324,858.596497 905.892883,864.705994 904.565308,870.796143 
	C895.352417,913.059570 886.139893,955.323059 876.888733,997.578125 
	C871.217346,1023.482483 865.472656,1049.370605 859.781799,1075.270752 
	C859.428406,1076.878906 859.257385,1078.527100 859.000732,1080.578369 
	C573.115112,1081.000000 287.230194,1081.000000 1.000000,1081.000000 
	C1.000000,1004.979431 1.000000,928.958374 1.000000,852.468628 
z"/>
<path fill="#000000" opacity="1.000000" stroke="none" 
	d="
M1921.000000,177.531342 
	C1690.510498,178.000000 1460.020996,178.000000 1228.948975,178.000000 
	C1231.424438,166.031433 1233.717163,154.880737 1236.038330,143.735962 
	C1242.014771,115.040840 1247.973755,86.342049 1253.998047,57.656994 
	C1257.911865,39.021885 1261.927856,20.408264 1265.948975,1.392500 
	C1484.218506,1.000000 1702.437012,1.000000 1921.000000,1.000000 
	C1921.000000,59.687111 1921.000000,118.374901 1921.000000,177.531342 
z"/>
<path fill="#000000" opacity="1.000000" stroke="none" 
	d="
M1730.468506,1081.000000 
	C1731.487915,1073.033325 1732.821289,1065.034058 1734.490356,1057.105591 
	C1741.962524,1021.612915 1749.489746,986.131653 1757.075928,950.663208 
	C1763.207764,921.994019 1769.539062,893.367310 1775.624512,864.688354 
	C1783.187134,829.047974 1790.521484,793.359253 1798.077393,757.717468 
	C1805.119141,724.500671 1812.362793,691.326599 1819.441772,658.117676 
	C1825.691040,628.800293 1831.811279,599.455383 1838.033936,570.132324 
	C1844.085449,541.616333 1850.211060,513.116089 1856.274414,484.602539 
	C1862.543213,455.122009 1868.751587,425.628571 1875.032959,396.150726 
	C1880.763672,369.257355 1886.586304,342.383606 1892.314209,315.489655 
	C1898.903076,284.552551 1905.421509,253.600433 1911.993286,222.659637 
	C1914.229736,212.129837 1916.513672,201.609879 1918.843994,191.100494 
	C1919.074463,190.060455 1919.780640,189.125839 1920.633057,188.071136 
	C1921.000000,485.546539 1921.000000,783.093079 1921.000000,1081.000000 
	C1857.646240,1081.000000 1794.291748,1081.000000 1730.468506,1081.000000 
z"/>
<path fill="#000000" opacity="1.000000" stroke="none" 
	d="
M177.531342,1.000001 
	C175.873383,12.220541 173.899292,23.472544 171.592377,34.655888 
	C163.759171,72.629318 155.865738,110.590553 147.886169,148.533508 
	C140.111038,185.504517 132.123383,222.430908 124.374382,259.407349 
	C117.135857,293.947815 110.156013,328.542419 102.935753,363.086761 
	C96.867180,392.121033 90.553596,421.104034 84.462723,450.133698 
	C77.249657,484.511871 70.176910,518.919495 63.010128,553.307373 
	C56.620396,583.966797 50.182198,614.616211 43.771378,645.271240 
	C38.175400,672.029968 32.608654,698.794800 26.990763,725.548950 
	C20.895002,754.578796 14.754148,783.599243 8.634931,812.624207 
	C6.755217,821.540161 4.901709,830.461670 2.974941,839.367432 
	C2.784886,840.245972 2.164532,841.031433 1.371951,841.930054 
	C1.000000,561.787170 1.000000,281.574341 1.000000,1.000000 
	C59.687065,1.000000 118.374878,1.000000 177.531342,1.000001 
z"/>
<path fill="#FEFEFE" opacity="1.000000" stroke="none" 
	d="
M1561.528809,799.478394 
	C1586.349243,854.232178 1610.974365,908.660950 1635.929688,963.819458 
	C1633.397339,963.819458 1631.793335,963.819458 1630.189453,963.819458 
	C1580.859985,963.819458 1531.530396,963.774597 1482.201294,963.906921 
	C1478.379761,963.917236 1476.446411,962.974548 1474.772949,959.284485 
	C1441.695557,886.353455 1408.440918,813.502808 1375.221436,740.636230 
	C1372.363647,734.367859 1361.947754,733.152283 1357.391846,738.555542 
	C1325.175049,776.765320 1292.962646,814.978699 1260.742554,853.185608 
	C1230.563232,888.972595 1200.401978,924.774719 1170.109741,960.465820 
	C1168.716431,962.107422 1166.119873,963.673645 1164.078125,963.680664 
	C1113.249390,963.855225 1062.419922,963.815002 1011.590637,963.805115 
	C1011.283142,963.805054 1010.975647,963.694580 1010.174744,963.541199 
	C1010.956970,962.365540 1011.538757,961.273743 1012.318909,960.349365 
	C1110.102051,844.496948 1207.883423,728.643005 1305.781372,612.887573 
	C1308.557251,609.605286 1308.879395,607.263916 1307.138306,603.339417 
	C1262.402710,502.505829 1217.822876,401.603149 1173.226074,300.708008 
	C1172.371704,298.775116 1171.637817,296.788849 1170.587158,294.180603 
	C1172.784790,294.180603 1174.373047,294.180603 1175.961426,294.180603 
	C1226.457520,294.180603 1276.953613,294.221375 1327.449341,294.096283 
	C1331.132935,294.087158 1332.882935,295.076233 1334.385376,298.612671 
	C1363.615723,367.417633 1393.015991,436.150360 1422.381714,504.897797 
	C1425.695068,512.654602 1431.278931,513.354187 1436.695923,506.648651 
	C1493.009399,436.939331 1549.303711,367.214508 1605.694336,297.567749 
	C1606.966919,295.996063 1609.305908,294.327423 1611.152832,294.321228 
	C1663.143311,294.146820 1715.134521,294.181030 1768.190430,294.181030 
	C1766.815552,295.933319 1765.929565,297.168060 1764.937866,298.311096 
	C1672.572754,404.784088 1580.237671,511.283051 1487.706543,617.611511 
	C1483.418091,622.539246 1482.711792,625.990356 1485.532227,632.129089 
	C1511.057983,687.684937 1536.129150,743.449768 1561.528809,799.478394 
z"/>
<path fill="#FEFEFE" opacity="1.000000" stroke="none" 
	d="
M1054.429932,445.501282 
	C1045.372070,488.038513 1036.455933,530.176331 1027.511475,572.308167 
	C1016.356628,624.851379 1005.179626,677.389771 994.006104,729.928955 
	C993.628052,731.706177 993.183960,733.469299 992.781433,735.192627 
	C970.123413,735.192627 947.697510,735.192627 924.789490,735.192627 
	C929.001587,715.100037 933.144409,695.337952 937.266907,675.673157 
	C932.066833,673.640686 929.710693,676.660400 926.948914,679.796631 
	C879.626831,733.534851 820.575745,754.102905 750.920959,737.729309 
	C698.316406,725.363586 664.201538,690.015564 644.153320,640.607666 
	C633.338562,613.955139 629.974609,586.007263 630.500000,557.446167 
	C631.421753,507.341370 641.462585,459.333374 664.209473,414.442078 
	C687.444153,368.588440 720.099670,331.333008 766.367920,307.615997 
	C807.868591,286.342804 851.767578,278.891174 897.550293,290.144531 
	C934.529358,299.233917 963.937134,319.473145 982.560059,353.567871 
	C985.333618,358.645660 987.743469,364.040222 989.418945,369.562134 
	C990.740479,373.917328 992.644836,375.768066 997.841187,374.286896 
	C1015.922791,289.070282 1034.096191,203.420883 1052.321533,117.527115 
	C1076.185547,117.527115 1099.936157,117.527115 1124.103149,117.527115 
	C1120.901855,132.684479 1117.763916,147.625137 1114.589844,162.558075 
	C1097.406616,243.398529 1080.212524,324.236664 1063.027222,405.076660 
	C1060.191772,418.414825 1057.381226,431.758270 1054.429932,445.501282 
M800.833618,678.938660 
	C819.983582,680.652710 838.798523,678.983154 856.966431,672.538940 
	C890.030151,660.811340 915.284119,639.039246 934.961426,610.499939 
	C954.955200,581.501709 966.617676,549.135559 971.875000,514.494141 
	C975.993591,487.355957 977.480957,460.063873 970.981384,433.044067 
	C961.937561,395.447418 941.295288,366.894745 903.313965,355.121124 
	C854.826721,340.090820 810.867249,351.012421 772.279175,383.374481 
	C746.199158,405.246613 729.404907,433.607361 718.543823,465.486572 
	C704.788635,505.860474 699.351501,547.297913 708.245239,589.385315 
	C719.380920,642.082703 755.148743,673.437134 800.833618,678.938660 
z"/>
<path fill="#FEFEFE" opacity="1.000000" stroke="none" 
	d="
M194.086823,511.124603 
	C197.810623,480.974426 205.004150,452.204712 216.875320,424.662476 
	C240.363388,370.167816 276.749390,327.675354 331.928070,303.581421 
	C377.110901,283.852203 424.209137,278.498444 471.897919,292.439606 
	C532.110779,310.041992 568.117249,351.724030 583.892639,411.550507 
	C591.071350,438.775208 591.012512,466.597565 588.521301,494.453583 
	C587.456238,506.362640 586.226257,518.256958 585.027588,530.607788 
	C478.344025,530.607788 372.267975,530.607788 265.047699,530.607788 
	C265.047699,541.552429 264.741028,552.005127 265.109467,562.433960 
	C265.963226,586.601196 271.585388,609.467834 284.547729,630.211487 
	C302.378387,658.745911 328.532776,674.150330 361.503662,677.805054 
	C386.268707,680.550110 410.787659,678.324585 434.206055,669.181396 
	C455.838928,660.735352 472.582916,646.247253 484.761475,626.426147 
	C485.788879,624.754028 488.022583,622.739502 489.714508,622.722351 
	C513.536865,622.480652 537.362488,622.558105 562.642029,622.558105 
	C558.860657,631.842529 555.898560,640.744568 551.739075,649.046631 
	C533.609619,685.231323 504.629150,709.833374 467.590698,724.864624 
	C417.830933,745.058716 366.524475,749.887939 314.572174,735.105347 
	C252.744873,717.513000 214.961166,675.649048 198.105438,614.337952 
	C190.274216,585.852600 190.563049,556.684998 192.575043,527.492676 
	C192.941391,522.177246 193.549561,516.878418 194.086823,511.124603 
M326.484100,382.981110 
	C300.233093,407.798889 285.033112,438.785492 275.231262,473.337219 
	C355.659546,473.337219 435.231598,473.337219 515.011169,473.337219 
	C515.282715,471.868927 515.669189,470.592010 515.735229,469.298737 
	C516.561707,453.102966 515.973877,437.030304 511.906189,421.205261 
	C501.521454,380.804626 472.895630,354.313904 431.709656,348.802582 
	C391.720642,343.451416 356.791779,355.378937 326.484100,382.981110 
z"/>
<path fill="#02262B" opacity="1.000000" stroke="none" 
	d="
M800.378296,678.897461 
	C755.148743,673.437134 719.380920,642.082703 708.245239,589.385315 
	C699.351501,547.297913 704.788635,505.860474 718.543823,465.486572 
	C729.404907,433.607361 746.199158,405.246613 772.279175,383.374481 
	C810.867249,351.012421 854.826721,340.090820 903.313965,355.121124 
	C941.295288,366.894745 961.937561,395.447418 970.981384,433.044067 
	C977.480957,460.063873 975.993591,487.355957 971.875000,514.494141 
	C966.617676,549.135559 954.955200,581.501709 934.961426,610.499939 
	C915.284119,639.039246 890.030151,660.811340 856.966431,672.538940 
	C838.798523,678.983154 819.983582,680.652710 800.378296,678.897461 
z"/>
<path fill="#04272C" opacity="1.000000" stroke="none" 
	d="
M326.739532,382.735199 
	C356.791779,355.378937 391.720642,343.451416 431.709656,348.802582 
	C472.895630,354.313904 501.521454,380.804626 511.906189,421.205261 
	C515.973877,437.030304 516.561707,453.102966 515.735229,469.298737 
	C515.669189,470.592010 515.282715,471.868927 515.011169,473.337219 
	C435.231598,473.337219 355.659546,473.337219 275.231262,473.337219 
	C285.033112,438.785492 300.233093,407.798889 326.739532,382.735199 
z"/>
</svg>